<svg xmlns="http://www.w3.org/2000/svg" xmlns:xlink="http://www.w3.org/1999/xlink" version="1.1" id="Layer_1" x="0px" y="0px" style="enable-background:new 0 0 400 400;" xml:space="preserve" viewBox="63.37 63.13 271.26 270.43">
<style type="text/css">
	.st0{fill-rule:evenodd;clip-rule:evenodd;}
</style>
<path class="st0" d="M165.37,115.77v-1.63c0-14.73,5.47-28.94,15.35-39.87c1.59-1.76,3.15-3.49,4.56-5.05  c3.5-3.88,8.49-6.09,13.72-6.09c5.23,0,10.21,2.21,13.72,6.09c1.41,1.56,2.97,3.29,4.56,5.05c9.88,10.93,15.35,25.14,15.35,39.87  v1.63h70.62c8.32,0,16.3,3.31,22.19,9.19c5.88,5.88,9.19,13.87,9.19,22.19v117.76c0,8.32-3.31,16.3-9.19,22.19  c-5.89,5.89-13.87,9.19-22.19,9.19h-73.63v26.41h24.15c3,0,5.43,2.44,5.43,5.43s-2.44,5.43-5.43,5.43H144.23  c-3,0-5.43-2.43-5.43-5.43s2.43-5.43,5.43-5.43h24.15V296.3H94.75c-8.32,0-16.3-3.31-22.19-9.19c-5.88-5.88-9.19-13.87-9.19-22.19  V147.15c0-8.32,3.31-16.3,9.19-22.19c5.88-5.89,13.87-9.19,22.19-9.19C94.75,115.77,165.37,115.77,165.37,115.77z M179.24,296.3  v26.41h39.53V296.3H179.24z M323.78,263.07H74.24v1.85c0,5.44,2.16,10.66,6.01,14.51c3.85,3.85,9.07,6.01,14.51,6.01h208.51  c5.44,0,10.66-2.16,14.51-6.01s6.01-9.07,6.01-14.51C323.78,264.92,323.78,263.07,323.78,263.07z M112.52,252.2h60.47v-44.71h-15.66  c-5.78,0-11.29-2.46-15.14-6.77c-3.86-4.31-5.7-10.05-5.06-15.8c0-0.01,0-0.02,0-0.03c0.55-4.94,2.88-9.52,6.58-12.85l21.67-19.58  v-25.83H94.75c-5.44,0-10.66,2.16-14.51,6.01c-3.85,3.85-6.01,9.07-6.01,14.51V252.2h27.48v-88l-9.61,9.61  c-2.11,2.11-5.53,2.11-7.64,0c-2.11-2.11-2.11-5.53,0-7.64l18.83-18.83c2.11-2.11,5.53-2.11,7.64,0l18.83,18.83  c2.11,2.11,2.11,5.53,0,7.64c-2.11,2.11-5.53,2.11-7.64,0l-9.61-9.61C112.52,164.2,112.52,252.2,112.52,252.2z M183.59,252.2h30.83  v-44.71h-30.83V252.2z M296.29,252.2h27.48V147.15c0-5.44-2.16-10.66-6.01-14.51c-3.85-3.85-9.07-6.01-14.51-6.01h-70.62v25.83  l21.67,19.58c3.69,3.34,6.03,7.91,6.58,12.85c0,0.01,0,0.02,0,0.03c0.63,5.75-1.21,11.49-5.06,15.8c-3.86,4.31-9.37,6.77-15.15,6.77  h-15.66v44.71h60.47v-88l-9.61,9.61c-2.11,2.11-5.53,2.11-7.64,0c-2.11-2.11-2.11-5.53,0-7.64l18.83-18.83  c2.11-2.11,5.53-2.11,7.64,0l18.83,18.83c2.11,2.11,2.11,5.53,0,7.64c-2.11,2.11-5.53,2.11-7.64,0l-9.61-9.61V252.2z M175.97,157.17  v-43.03c0-12.11,4.5-23.78,12.62-32.76c1.59-1.76,3.15-3.49,4.56-5.05c1.5-1.66,3.63-2.6,5.86-2.6c2.23,0,4.36,0.94,5.86,2.6  c1.41,1.56,2.97,3.29,4.56,5.05c8.12,8.98,12.62,20.65,12.62,32.76v43.03c0,0,18.13,16.38,25.16,22.74c1.77,1.6,2.89,3.79,3.15,6.15  c0,0.01,0,0.02,0.01,0.03c0.3,2.75-0.58,5.5-2.42,7.57c-1.85,2.06-4.48,3.24-7.25,3.24h-83.35c-2.77,0-5.4-1.18-7.25-3.24  c-1.85-2.06-2.73-4.81-2.42-7.57c0-0.01,0-0.02,0-0.03c0.26-2.37,1.38-4.56,3.15-6.15C157.84,173.55,175.97,157.17,175.97,157.17z"/>
</svg>