<svg xmlns="http://www.w3.org/2000/svg" xmlns:xlink="http://www.w3.org/1999/xlink" version="1.1" id="Layer_1" x="0px" y="0px" style="enable-background:new 0 0 400 400;" xml:space="preserve" viewBox="43.47 61.79 310.92 277.62">
<path d="M220.51,187.16c-2.01,1.61-4.96,1.27-6.57-0.74c-1.61-2.01-1.27-4.96,0.74-6.57l67.61-54.68l-1.14-1.14  c-1.81-1.81-1.81-4.82,0-6.63c0.67-0.67,1.47-1.07,2.35-1.27l11.46-3.08c2.48-0.67,5.03,0.8,5.76,3.28c0.2,0.87,0.2,1.68,0,2.48  l-3.15,11.66c-0.67,2.48-3.22,4.02-5.7,3.35c-0.8-0.2-1.54-0.67-2.08-1.21l-0.8-0.8L220.51,187.16z M233.78,284.19  c-2.61,0-4.69-2.08-4.69-4.69s2.08-4.69,4.69-4.69h78.54c2.61,0,4.69,2.08,4.69,4.69s-2.08,4.69-4.69,4.69H233.78z M233.78,264.49  c-2.61,0-4.69-2.08-4.69-4.69c0-2.61,2.08-4.69,4.69-4.69h78.54c2.61,0,4.69,2.08,4.69,4.69c0,2.61-2.08,4.69-4.69,4.69H233.78z   M134.74,277.96c8.18,0,15.61-3.35,20.97-8.71c5.36-5.36,8.71-12.8,8.71-20.97c0-8.18-3.35-15.61-8.71-20.97  c-5.36-5.36-12.73-8.71-20.97-8.71c-8.24,0-15.61,3.35-20.97,8.71s-8.71,12.73-8.71,20.97c0,8.18,3.35,15.61,8.71,20.97  S126.57,277.96,134.74,277.96z M162.35,275.95c-7.04,7.04-16.82,11.46-27.61,11.46c-10.79,0-20.51-4.36-27.61-11.46  c-7.04-7.04-11.46-16.82-11.46-27.61c0-10.79,4.36-20.51,11.46-27.61c7.04-7.04,16.82-11.39,27.61-11.39  c10.79,0,20.51,4.36,27.61,11.39c7.04,7.04,11.39,16.82,11.39,27.61C173.74,259.13,169.39,268.85,162.35,275.95z M154.18,196.08  c2.95,1.07,5.76,2.41,8.44,3.95c2.75,1.61,5.29,3.35,7.71,5.36l10.59-6.1c2.21-1.27,5.09-0.54,6.43,1.74l14.74,25.53  c1.27,2.21,0.54,5.09-1.74,6.37l-10.59,6.1c0.2,0.94,0.34,1.94,0.4,2.88c0.27,2.14,0.4,4.29,0.4,6.43c0,2.14-0.13,4.29-0.4,6.43  c-0.13,0.94-0.27,1.94-0.4,2.88l10.59,6.1c2.21,1.27,3.02,4.15,1.74,6.37l-14.74,25.53c-1.27,2.21-4.15,3.02-6.43,1.68l-10.59-6.1  c-2.41,2.01-4.96,3.82-7.71,5.36c-2.68,1.54-5.49,2.88-8.44,4.02v12.2c0,2.61-2.08,4.69-4.69,4.69H120c-2.61,0-4.69-2.08-4.69-4.69  v-12.2c-2.95-1.07-5.76-2.41-8.44-4.02c-2.75-1.61-5.29-3.35-7.71-5.36l-10.59,6.1c-2.21,1.27-5.09,0.54-6.37-1.74l-14.74-25.53  c-1.27-2.21-0.54-5.09,1.74-6.37l10.59-6.1c-0.2-0.94-0.34-1.94-0.4-2.88c-0.27-2.14-0.34-4.29-0.34-6.43  c0-2.14,0.13-4.29,0.34-6.43c0.13-0.94,0.27-1.94,0.4-2.88l-10.65-6.1c-2.21-1.27-3.02-4.15-1.68-6.37l14.74-25.53  c1.34-2.21,4.15-3.02,6.43-1.74c0.07,0.07,0.2,0.07,0.27,0.13l10.32,5.96c2.41-2.01,5.03-3.82,7.71-5.36  c2.68-1.54,5.5-2.88,8.44-3.95v-12.26c0-2.61,2.08-4.69,4.69-4.69h29.48c2.61,0,4.69,2.08,4.69,4.69v12.33L154.18,196.08z   M157.93,208.14c-3.02-1.74-6.17-3.15-9.58-4.15c-2.08-0.47-3.55-2.35-3.55-4.56V188.5h-20.1v10.92c0,2.01-1.34,3.89-3.35,4.49  c-3.48,1.07-6.7,2.48-9.78,4.22c-3.08,1.81-6.03,3.95-8.58,6.43c-1.47,1.41-3.69,1.74-5.5,0.67l-9.45-5.43l-10.05,17.42l9.25,5.36  c1.88,0.94,2.95,3.08,2.41,5.23c-0.4,1.74-0.74,3.48-0.94,5.29c-0.2,1.74-0.34,3.48-0.34,5.36c0,1.88,0.13,3.62,0.34,5.36  c0.2,1.81,0.54,3.55,0.94,5.29c0.47,1.94-0.4,4.09-2.21,5.09l-9.45,5.49l10.05,17.42l9.18-5.29c1.74-1.21,4.22-1.07,5.83,0.47  c2.61,2.48,5.5,4.62,8.58,6.43c2.95,1.74,6.17,3.08,9.52,4.15c2.08,0.47,3.62,2.35,3.62,4.56v10.86h20.1v-10.86  c0-2.01,1.34-3.89,3.35-4.49c3.48-1.01,6.7-2.48,9.78-4.22c3.08-1.81,5.96-3.89,8.51-6.37c1.47-1.41,3.75-1.74,5.63-0.67l9.45,5.5  l10.05-17.42l-9.11-5.29c-1.94-0.94-3.08-3.08-2.55-5.29c0.4-1.74,0.67-3.48,0.94-5.29c0.2-1.74,0.34-3.48,0.34-5.36  c0-1.81-0.13-3.62-0.34-5.36c-0.2-1.81-0.54-3.55-0.94-5.29c-0.47-1.94,0.4-4.02,2.21-5.09l9.45-5.43l-10.05-17.42l-9.38,5.43  c-1.74,1.07-4.09,0.87-5.63-0.6C163.89,212.09,161.01,209.95,157.93,208.14L157.93,208.14z M134.74,166.46  c-22.65,0-43.09,9.18-57.9,23.99c-14.81,14.81-23.99,35.31-23.99,57.9c0,22.65,9.18,43.09,23.99,57.9  c14.81,14.81,35.25,23.99,57.9,23.99c22.58,0,43.09-9.18,57.9-23.99c14.81-14.81,23.99-35.25,23.99-57.9  c0-13.4-3.22-26.07-8.91-37.26c-3.95-7.64-8.98-14.61-15.01-20.64C177.83,175.64,157.33,166.46,134.74,166.46L134.74,166.46z   M70.21,183.81c12.6-12.6,28.81-21.51,46.97-25.06V66.48c0-2.61,2.08-4.69,4.69-4.69h190.44c2.61,0,4.69,2.08,4.69,4.69v28.35h32.7  c2.61,0,4.69,2.08,4.69,4.69v192.65c0,1.47-0.67,2.81-1.74,3.62l-34.84,31.63l-0.13,0.13c-0.07,0-0.07,0.07-0.07,0.07  c-0.07,0.07-0.13,0.07-0.2,0.13l-0.34,0.34c-0.07,0-0.13,0.07-0.2,0.07c-0.07,0.07-0.2,0.07-0.27,0.13l-0.2,0.2H178.03  c-12.87,6.97-27.61,10.92-43.29,10.92c-25.2,0-48.05-10.25-64.53-26.74c-16.55-16.28-26.74-39.13-26.74-64.33  S53.66,200.36,70.21,183.81L70.21,183.81z M126.57,157.48c2.68-0.27,5.43-0.34,8.18-0.34c6.77,0,13.47,0.74,19.83,2.14V99.51  c0-2.61,2.08-4.69,4.69-4.69h148.36V71.17H126.57L126.57,157.48z M163.96,161.83c13.47,4.56,25.46,12.13,35.31,21.98  c3.28,3.28,6.3,6.84,9.05,10.59c0.87-0.94,2.08-1.54,3.48-1.54h18.63c2.61,0,4.69,2.08,4.69,4.69v24.59h1.68v-37.86  c0-2.61,2.08-4.69,4.69-4.69h18.56c2.61,0,4.69,2.08,4.69,4.69v37.86h1.68v-61.72c0-2.61,2.08-4.69,4.69-4.69h18.56  c2.61,0,4.69,2.08,4.69,4.69v61.72h1.68v-81.95c0-2.61,2.08-4.69,4.69-4.69h18.56c2.61,0,4.69,2.08,4.69,4.69v81.95h7.04  c2.61,0,4.69,2.08,4.69,4.69v11.99c0,2.61-2.08,4.69-4.69,4.69H225.87c0.07,1.61,0.13,3.22,0.13,4.82  c0,25.2-10.25,48.05-26.74,64.53c-2.28,2.28-4.62,4.42-7.17,6.43h117.87v-27.14c0-2.61,2.08-4.69,4.69-4.69h30.36V104.21H163.96  L163.96,161.83z M216.56,207.87c2.28,4.56,4.15,9.31,5.63,14.27h3.55v-19.9h-9.18L216.56,207.87z M224.47,231.46  c0.2,0.87,0.34,1.74,0.47,2.61h101.32v-2.61h-12.06c-0.6,0.27-1.21,0.4-1.88,0.4s-1.34-0.13-1.88-0.4H224.47z M246.11,222.08h9.18  v-33.17h-9.18L246.11,222.08z M275.73,222.08h9.18v-57.03h-9.18V222.08z M305.28,222.08h9.11v-77.2h-9.18v77.2H305.28z   M337.58,296.93h-18.23v16.55L337.58,296.93z"/>
</svg>