<svg xmlns="http://www.w3.org/2000/svg" xmlns:xlink="http://www.w3.org/1999/xlink" version="1.1" id="Layer_1" x="0px" y="0px" style="enable-background:new 0 0 400 400;" xml:space="preserve" viewBox="79.85 76.46 237.9 252.03">
<g>
	<path d="M317.75,232.03V80.52h-98.27c-6.44-2.58-13.4-4.06-20.68-4.06s-14.24,1.48-20.68,4.06H79.85v151.51h78.05v24.53h-23.86   v10.82H79.85v61.11h237.9v-61.11h-54.19v-10.82H239.7v-24.53C239.7,232.03,317.75,232.03,317.75,232.03z M310.93,87.73v137.08   H208.37v-4.33h98.47V92.06h-69.3c-1.64-1.54-3.35-2.99-5.15-4.33C232.4,87.73,310.93,87.73,310.93,87.73z M258.56,167.82v12.99   h17.72v-9.38h7.96v-23.81h-27.52c0.42-2.98,0.71-6.01,0.71-9.11c0-14.87-4.98-28.53-13.25-39.23h55.85v114h-91.65v-13.62   c22.67-3.97,40.95-21.7,46.92-44.82h22.12v9.38h-7.96v9.38h-4.09v-5.77H258.56z M201.56,247.02h-5.51v-46.62   c0.92,0.05,1.82,0.15,2.75,0.15s1.84-0.1,2.76-0.15V247.02z M198.8,193.34c-10.76,0-20.76-3.49-29.06-9.47   c3.3-3.48,5.94-7.69,7.62-12.44h36.88v9.38h10.45v-7.21h-3.64v-9.38h-48.73l-0.71,2.61c-1.33,4.91-3.9,9.19-7.27,12.53   c-2.88-2.72-5.48-5.77-7.72-9.1c2.73-2.82,4.44-6.74,4.44-11.09c0-8.26-6.14-14.96-13.84-15.43c-0.15-1.72-0.25-3.47-0.25-5.23   c0-2.4,0.2-4.75,0.48-7.07c11.47,0.48,21.39,8.85,24.31,20.71l0.67,2.7h75.81C241.68,177.12,222,193.34,198.8,193.34z    M152.9,163.83c-1.96-3.96-3.45-8.2-4.45-12.65c3.34,0.95,5.82,4.15,5.82,7.98C154.27,160.89,153.76,162.5,152.9,163.83z    M141.75,152.54c1.15,5.24,2.9,10.22,5.22,14.86c-0.18,0.01-0.35,0.06-0.54,0.06c-4.32,0-7.84-3.72-7.84-8.3   C138.59,156.45,139.84,154.06,141.75,152.54z M140.5,145c-5.13,2.42-8.73,7.84-8.73,14.16c0,8.55,6.57,15.51,14.66,15.51   c1.51,0,2.93-0.31,4.3-0.76c2.34,3.54,5.03,6.8,8,9.75c-3.71,2.1-7.91,3.28-12.3,3.28c-14.47,0-26.24-12.46-26.24-27.78   c0-13.15,8.69-24.17,20.31-27.03c-0.2,2.1-0.31,4.22-0.31,6.38C140.18,140.7,140.29,142.86,140.5,145z M141.72,124.57   c-16.01,2.43-28.36,17-28.36,34.6c0,19.3,14.83,34.99,33.06,34.99c6.48,0,12.63-2.05,17.85-5.62c7.24,5.62,15.73,9.5,24.95,11.11   v13.62H97.57v-114h55.85C147.82,106.52,143.78,115.15,141.72,124.57z M196.05,254.24h5.51v46.84h-5.51V254.24z M250.61,138.5   c0,3.11-0.3,6.14-0.78,9.11h-72.22c-4.33-13.14-15.66-22.34-28.78-23.35c5.94-23.34,26.06-40.6,49.97-40.6   C227.37,83.67,250.61,108.27,250.61,138.5z M86.67,87.73h78.54c-1.8,1.34-3.51,2.79-5.15,4.33h-69.3v128.43h98.47v4.33H86.67V87.73   z M164.72,232.03h24.51v24.53h-24.51V232.03z M140.86,263.78h48.37v14.43h-48.37V263.78z M310.93,274.6v26.48h-56.92v7.21h56.92   v12.99H86.67v-12.99h16.25v-7.21H86.67V274.6h47.38v10.82h55.19v22.87h19.14v-22.87h55.18V274.6H310.93z M256.74,278.21h-48.37   v-14.43h48.37V278.21z M232.88,256.56h-24.51v-24.53h24.51V256.56z"/>
	<path d="M167.22,117.06c6.95-11.43,18.75-18.26,31.58-18.26c20.68,0,37.51,17.81,37.51,39.71h6.82c0-25.87-19.89-46.92-44.33-46.92   c-15.15,0-29.1,8.06-37.31,21.57L167.22,117.06z"/>
	<rect x="111.55" y="301.08" width="65.93" height="7.21"/>
	<rect x="242.43" y="301.08" width="6.36" height="7.21"/>
</g>
</svg>