<svg xmlns="http://www.w3.org/2000/svg" xmlns:xlink="http://www.w3.org/1999/xlink" version="1.1" id="Layer_1" x="0px" y="0px" style="enable-background:new 0 0 400 400;" xml:space="preserve" viewBox="71.92 69.43 265.88 265.88">
<style type="text/css">
	.st0{fill:#FFFFFF;}
</style>
<g>
	<path d="M337.8,83.43c0,79.12,0,158.24,0,237.36c-0.16,0.39-0.34,0.77-0.46,1.18c-2.51,8.44-8.35,12.81-17.19,12.81   c-76.68,0.01-153.37,0-230.05,0c-1.2,0-2.43-0.01-3.61-0.21c-8.64-1.51-14.03-8.23-14.03-17.49c-0.01-70.55,0-141.1,0-211.66   c0-6.56-0.15-13.13,0.05-19.69c0.21-7.16,3.85-12.16,10.36-15.1c1-0.45,2.04-0.8,3.07-1.2c79.29,0,158.59,0,237.88,0   c2.33,1.02,4.8,1.79,6.94,3.12C334.74,75.03,336.6,79.06,337.8,83.43z M83.47,124.9c0,1.16,0,2.01,0,2.86c0,62.87,0,125.73,0,188.6   c0,5.54,1.9,7.41,7.52,7.41c76.08,0,152.16,0,228.24,0c5.73,0,7.57-1.85,7.57-7.63c0-62.78,0-125.56,0-188.34c0-0.92,0-1.85,0-2.9   C245.58,124.9,164.7,124.9,83.47,124.9z M83.61,113.43c81.08,0,162,0,243.06,0c0.04-0.86,0.11-1.53,0.11-2.2   c0.01-7.94,0.02-15.89,0-23.83c-0.02-4.89-2.05-6.94-6.95-6.94c-76.5-0.01-153-0.01-229.5,0c-4.83,0-6.85,2.1-6.86,7.02   c-0.02,7.86-0.01,15.71,0,23.57C83.48,111.81,83.56,112.56,83.61,113.43z"/>
	<path class="st0" d="M85.93,69.44c-1.02,0.4-2.07,0.75-3.07,1.2c-6.5,2.93-10.15,7.94-10.36,15.1c-0.19,6.56-0.05,13.12-0.05,19.69   c0,70.55,0,141.1,0,211.66c0,9.26,5.39,15.98,14.03,17.49c1.18,0.21,2.41,0.21,3.61,0.21c76.68,0.01,153.37,0.01,230.05,0   c8.85,0,14.68-4.37,17.19-12.81c0.12-0.4,0.31-0.78,0.46-1.18c0,4.84,0,9.67,0,14.51c-88.62,0-177.24,0-265.87,0   c0-88.62,0-177.24,0-265.87C76.6,69.44,81.27,69.44,85.93,69.44z"/>
	<path class="st0" d="M337.8,83.43c-1.2-4.37-3.06-8.41-7.05-10.88c-2.14-1.32-4.62-2.1-6.94-3.12c4.62,0,9.24,0,13.99,0   C337.8,74.1,337.8,78.77,337.8,83.43z"/>
	<path class="st0" d="M83.47,124.9c81.23,0,162.11,0,243.32,0c0,1.06,0,1.98,0,2.9c0,62.78,0,125.56,0,188.34   c0,5.78-1.84,7.63-7.57,7.63c-76.08,0-152.16,0-228.24,0c-5.61,0-7.52-1.87-7.52-7.41c0-62.87,0-125.73,0-188.6   C83.47,126.91,83.47,126.06,83.47,124.9z M205.13,312.63c19.61,0,39.21,0.01,58.82-0.01c2.15,0,4.34,0.01,6.45-0.36   c14.08-2.45,23.2-13.74,23.21-28.71c0.02-39.56,0.03-79.11,0-118.67c-0.01-17.33-11.83-29.09-29.16-29.1   c-39.56-0.01-79.11-0.01-118.67,0c-17.3,0-29.13,11.79-29.14,29.11c-0.02,39.56-0.02,79.11,0.02,118.67c0,2.4,0.16,4.86,0.67,7.2   c2.92,13.31,13.81,21.82,27.95,21.86C165.23,312.67,185.18,312.63,205.13,312.63z"/>
	<path class="st0" d="M83.61,113.43c-0.05-0.87-0.14-1.62-0.14-2.38c-0.01-7.86-0.02-15.71,0-23.57c0.01-4.92,2.04-7.02,6.86-7.02   c76.5-0.01,153-0.01,229.5,0c4.9,0,6.93,2.04,6.95,6.94c0.03,7.94,0.01,15.89,0,23.83c0,0.67-0.07,1.35-0.11,2.2   C245.62,113.43,164.69,113.43,83.61,113.43z M249.44,91.6c-19.52,0-39.04,0-58.56,0c-0.86,0-1.73-0.02-2.59,0.04   c-3.01,0.23-5.22,2.48-5.27,5.35c-0.05,2.86,2.12,5.26,5.08,5.57c0.86,0.09,1.73,0.04,2.59,0.04c39.13,0,78.25,0,117.38,0   c0.86,0,1.74,0.05,2.59-0.05c3.18-0.36,5.24-2.98,4.91-6.16c-0.32-3.1-2.57-4.79-6.54-4.79C289.17,91.59,269.31,91.6,249.44,91.6z    M94.65,97c-0.03,3.12,2.44,5.62,5.5,5.59c2.93-0.03,5.41-2.5,5.46-5.43c0.05-3.07-2.45-5.55-5.56-5.53   C96.99,91.65,94.68,93.95,94.65,97z M144.39,91.63c-3.12-0.04-5.62,2.43-5.59,5.5c0.03,2.94,2.5,5.41,5.43,5.46   c3.07,0.05,5.55-2.45,5.53-5.56C149.75,93.97,147.45,91.67,144.39,91.63z M122.28,91.63c-3.1-0.03-5.65,2.47-5.6,5.51   c0.05,2.94,2.52,5.41,5.46,5.45c3.04,0.04,5.63-2.53,5.59-5.56C127.7,94.06,125.28,91.66,122.28,91.63z"/>
	<path d="M205.13,312.63c-19.95,0-39.9,0.04-59.85-0.01c-14.14-0.04-25.03-8.55-27.95-21.86c-0.51-2.34-0.67-4.8-0.67-7.2   c-0.04-39.56-0.05-79.11-0.02-118.67c0.01-17.32,11.84-29.11,29.14-29.11c39.56-0.01,79.11-0.01,118.67,0   c17.33,0,29.14,11.76,29.16,29.1c0.03,39.56,0.02,79.11,0,118.67c-0.01,14.97-9.13,26.27-23.21,28.71   c-2.11,0.37-4.3,0.36-6.45,0.36C244.35,312.64,224.74,312.63,205.13,312.63z M282.48,224.13c0-19.86,0.02-39.72-0.01-59.58   c-0.02-10.8-6.87-17.73-17.59-17.74c-39.81-0.03-79.62-0.03-119.43,0c-10.76,0.01-17.65,6.91-17.66,17.68   c-0.02,39.81-0.01,79.62,0.01,119.43c0,1.63,0.06,3.31,0.43,4.88c1.85,7.89,8.37,12.83,16.9,12.83   c39.64,0.01,79.27-0.15,118.91,0.12c10.26,0.07,18.77-7.03,18.55-18.54C282.21,263.51,282.48,243.82,282.48,224.13z"/>
	<path d="M249.44,91.6c19.87,0,39.73-0.01,59.6,0.01c3.96,0,6.21,1.69,6.54,4.79c0.33,3.18-1.73,5.8-4.91,6.16   c-0.85,0.1-1.73,0.05-2.59,0.05c-39.13,0-78.25,0-117.38,0c-0.86,0-1.73,0.05-2.59-0.04c-2.96-0.31-5.13-2.71-5.08-5.57   c0.05-2.87,2.25-5.13,5.27-5.35c0.86-0.06,1.73-0.04,2.59-0.04C210.4,91.6,229.92,91.6,249.44,91.6z"/>
	<path d="M94.65,97c0.03-3.05,2.34-5.35,5.4-5.37c3.11-0.02,5.61,2.46,5.56,5.53c-0.05,2.94-2.52,5.4-5.46,5.43   C97.08,102.63,94.61,100.12,94.65,97z"/>
	<path d="M144.39,91.63c3.06,0.03,5.35,2.34,5.37,5.4c0.02,3.11-2.46,5.61-5.53,5.56c-2.93-0.05-5.4-2.52-5.43-5.46   C138.77,94.06,141.27,91.6,144.39,91.63z"/>
	<path d="M122.28,91.63c3,0.03,5.42,2.43,5.45,5.4c0.03,3.03-2.55,5.6-5.59,5.56c-2.94-0.04-5.41-2.51-5.46-5.45   C116.63,94.1,119.18,91.6,122.28,91.63z"/>
	<path class="st0" d="M282.48,224.13c0,19.69-0.27,39.38,0.1,59.06c0.22,11.51-8.29,18.61-18.55,18.54   c-39.63-0.27-79.27-0.1-118.91-0.12c-8.52,0-15.05-4.94-16.9-12.83c-0.37-1.57-0.43-3.25-0.43-4.88   c-0.02-39.81-0.03-79.62-0.01-119.43c0.01-10.76,6.9-17.67,17.66-17.68c39.81-0.03,79.62-0.03,119.43,0   c10.72,0.01,17.58,6.94,17.59,17.74C282.5,184.41,282.48,204.27,282.48,224.13z M221.98,208.02c-1.06-4.29-2.7-5.87-6.23-5.89   c-7.08-0.05-14.16-0.05-21.24,0c-3.76,0.03-5.95,2.22-5.95,6.01c-0.03,23.65-0.03,47.31,0,70.96c0,3.63,2.21,5.87,5.79,5.91   c7.16,0.07,14.33,0.06,21.5,0c3.6-0.03,5.73-2.24,5.86-5.85c0.02-0.69,0.01-1.38,0.01-2.07c0-10.01-0.02-20.03,0.01-30.04   c0.01-3.89,2.3-6.27,5.75-6.15c3.23,0.12,5.22,2.35,5.23,6.11c0.04,10.45-0.01,20.89,0.03,31.34c0.01,4.59,2.11,6.67,6.63,6.68   c6.73,0.02,13.47,0.03,20.2,0c4.2-0.02,6.29-2.01,6.3-6.15c0.04-11.4,0.12-22.79-0.05-34.19c-0.15-10.03-3.97-18.67-11.04-25.74   C245.77,209.92,234.71,206.61,221.98,208.02z M177.53,243.69c0-11.31,0-22.62,0-33.93c0-5.93-1.75-7.64-7.76-7.65   c-6.3,0-12.61-0.02-18.91,0.01c-4.47,0.02-6.49,1.99-6.49,6.49c-0.02,23.31-0.02,46.63,0,69.94c0,4.49,2.02,6.46,6.51,6.48   c6.48,0.02,12.95,0.01,19.43,0c5.26,0,7.21-1.92,7.22-7.15C177.54,266.49,177.53,255.09,177.53,243.69z M160.86,196.53   c9.19,0.05,16.68-7.4,16.65-16.55c-0.03-9.02-7.39-16.46-16.42-16.6c-9.12-0.14-16.68,7.32-16.7,16.5   C144.36,189.18,151.59,196.48,160.86,196.53z"/>
	<path d="M221.98,208.02c12.73-1.42,23.79,1.9,32.81,10.93c7.07,7.07,10.89,15.71,11.04,25.74c0.17,11.39,0.08,22.79,0.05,34.19   c-0.01,4.14-2.11,6.13-6.3,6.15c-6.73,0.03-13.47,0.02-20.2,0c-4.52-0.01-6.62-2.09-6.63-6.68c-0.03-10.45,0.01-20.89-0.03-31.34   c-0.01-3.76-2-6-5.23-6.11c-3.46-0.12-5.74,2.26-5.75,6.15c-0.03,10.01-0.01,20.03-0.01,30.04c0,0.69,0.02,1.38-0.01,2.07   c-0.13,3.61-2.26,5.82-5.86,5.85c-7.16,0.06-14.33,0.07-21.5,0c-3.58-0.03-5.78-2.28-5.79-5.91c-0.03-23.65-0.03-47.31,0-70.96   c0-3.79,2.19-5.98,5.95-6.01c7.08-0.05,14.16-0.05,21.24,0C219.28,202.15,220.92,203.73,221.98,208.02z M254.86,273.91   c0-9.94,0.11-19.61-0.04-29.27c-0.09-5.49-2-10.47-5.25-14.9c-7.03-9.57-18.95-13.33-30.69-9.7c-4.8,1.49-7.76-0.47-8.19-5.42   c-0.04-0.41-0.13-0.81-0.22-1.33c-3.61,0-7.1,0-10.69,0c0,20.29,0,40.42,0,60.53c3.72,0,7.21,0,10.91,0c0-1.15,0-2.08,0-3.02   c0.01-8.38-0.1-16.75,0.07-25.13c0.13-6.31,3.25-11.04,8.78-13.97c11.18-5.92,24.05,2.04,24.29,15.03   c0.15,8.11,0.03,16.23,0.04,24.35c0,0.91,0.09,1.83,0.14,2.84C247.7,273.91,251.12,273.91,254.86,273.91z"/>
	<path d="M177.53,243.69c0,11.4,0.01,22.8,0,34.19c-0.01,5.22-1.96,7.14-7.22,7.15c-6.48,0.01-12.95,0.02-19.43,0   c-4.48-0.02-6.5-1.99-6.51-6.48c-0.02-23.31-0.02-46.63,0-69.94c0-4.5,2.02-6.47,6.49-6.49c6.3-0.02,12.61-0.01,18.91-0.01   c6.01,0,7.75,1.72,7.76,7.65C177.54,221.07,177.53,232.38,177.53,243.69z M155.54,213.29c0,20.24,0,40.36,0,60.55   c3.65,0,7.14,0,10.72,0c0-20.25,0-40.32,0-60.55C162.64,213.29,159.15,213.29,155.54,213.29z"/>
	<path d="M160.86,196.53c-9.27-0.05-16.5-7.35-16.48-16.65c0.02-9.18,7.58-16.64,16.7-16.5c9.04,0.14,16.39,7.57,16.42,16.6   C177.54,189.13,170.05,196.58,160.86,196.53z M166.36,180.03c0.02-3.07-2.24-5.41-5.3-5.48c-3.14-0.07-5.65,2.33-5.67,5.42   c-0.01,3.04,2.57,5.59,5.6,5.54C163.97,185.46,166.34,183.04,166.36,180.03z"/>
	<path class="st0" d="M254.86,273.91c-3.75,0-7.16,0-10.85,0c-0.05-1.01-0.14-1.92-0.14-2.84c-0.01-8.12,0.11-16.24-0.04-24.35   c-0.23-12.99-13.11-20.95-24.29-15.03c-5.53,2.93-8.65,7.66-8.78,13.97c-0.17,8.37-0.06,16.75-0.07,25.13c0,0.94,0,1.87,0,3.02   c-3.7,0-7.19,0-10.91,0c0-20.11,0-40.24,0-60.53c3.59,0,7.08,0,10.69,0c0.09,0.51,0.18,0.92,0.22,1.33   c0.42,4.95,3.38,6.91,8.19,5.42c11.73-3.64,23.66,0.12,30.69,9.7c3.25,4.43,5.17,9.42,5.25,14.9   C254.97,254.3,254.86,263.97,254.86,273.91z"/>
	<path class="st0" d="M155.54,213.29c3.61,0,7.1,0,10.72,0c0,20.23,0,40.3,0,60.55c-3.58,0-7.07,0-10.72,0   C155.54,253.65,155.54,233.53,155.54,213.29z"/>
</g>
</svg>