<svg xmlns="http://www.w3.org/2000/svg" xmlns:xlink="http://www.w3.org/1999/xlink" version="1.1" id="Layer_1" x="0px" y="0px" style="enable-background:new 0 0 400 400;" xml:space="preserve" viewBox="70.96 64.87 263.54 272.62">
<g>
	<path d="M315.19,337.49H90.24c-10.64,0-19.28-8.65-19.28-19.28V84.15c0-10.64,8.65-19.28,19.28-19.28h224.98   c10.64,0,19.28,8.65,19.28,19.28v234.08C334.47,328.85,325.82,337.49,315.19,337.49L315.19,337.49z M90.24,73.39   c-5.94,0-10.76,4.83-10.76,10.76v234.08c0,5.94,4.83,10.76,10.76,10.76h224.98c5.94,0,10.76-4.83,10.76-10.76l-0.01-234.08   c0-5.94-4.83-10.76-10.76-10.76L90.24,73.39z"/>
	<path d="M330.21,128.04H75.22c-2.36,0-4.26-1.9-4.26-4.26c0-2.36,1.9-4.26,4.26-4.26h255c2.36,0,4.26,1.9,4.26,4.26   C334.48,126.14,332.57,128.04,330.21,128.04L330.21,128.04z"/>
	<path d="M102.54,109.81c-7.37,0-13.36-5.99-13.36-13.36s5.99-13.36,13.36-13.36c7.37,0,13.36,5.99,13.36,13.36   C115.9,103.83,109.91,109.81,102.54,109.81z M102.54,91.59c-2.68,0-4.84,2.19-4.84,4.84c0,2.68,2.19,4.84,4.84,4.84   c2.67,0,4.84-2.19,4.84-4.84C107.38,93.78,105.19,91.59,102.54,91.59z"/>
	<path d="M138.96,109.81c-7.37,0-13.36-5.99-13.36-13.36s5.99-13.36,13.36-13.36c7.37,0,13.36,5.99,13.36,13.36   C152.32,103.83,146.34,109.81,138.96,109.81z M138.96,91.59c-2.68,0-4.84,2.19-4.84,4.84c0,2.68,2.19,4.84,4.84,4.84   c2.67,0,4.84-2.19,4.84-4.84C143.8,93.78,141.64,91.59,138.96,91.59z"/>
	<path d="M175.39,109.81c-7.37,0-13.36-5.99-13.36-13.36s5.99-13.36,13.36-13.36c7.37,0,13.36,5.99,13.36,13.36   C188.77,103.83,182.76,109.81,175.39,109.81z M175.39,91.59c-2.68,0-4.84,2.19-4.84,4.84c0,2.68,2.19,4.84,4.84,4.84   c2.68,0,4.84-2.19,4.84-4.84C180.25,93.78,178.06,91.59,175.39,91.59z"/>
	<path d="M330.21,100.7H216.37c-2.36,0-4.26-1.9-4.26-4.26c0-2.36,1.9-4.26,4.26-4.26h113.85c2.36,0,4.26,1.9,4.26,4.26   C334.48,98.8,332.57,100.7,330.21,100.7L330.21,100.7z"/>
	<path d="M151.51,316.2c-9.1,0-17.66-3.55-24.11-9.97c-6.45-6.45-9.97-14.99-9.97-24.11c0-9.1,3.55-17.66,9.97-24.11l24.11-24.11   c5.28-5.28,12-8.65,19.42-9.66c7.16-0.99,14.57,0.35,20.9,3.78c2.07,1.12,2.84,3.71,1.72,5.76c-1.12,2.07-3.71,2.84-5.76,1.72   c-9.87-5.34-22.29-3.52-30.23,4.42l-24.11,24.11c-4.83,4.83-7.5,11.25-7.5,18.06s2.67,13.23,7.5,18.06   c4.83,4.83,11.25,7.5,18.06,7.5s13.23-2.67,18.06-7.5l24.11-24.11c4.83-4.83,7.5-11.25,7.5-18.06c0-4.25-1.06-8.45-3.07-12.15   c-1.12-2.07-0.35-4.66,1.72-5.76c2.07-1.12,4.66-0.35,5.76,1.72c2.68,4.96,4.1,10.56,4.1,16.22c0,9.1-3.55,17.66-9.97,24.11   l-24.11,24.11C169.18,312.65,160.61,316.2,151.51,316.2L151.51,316.2z"/>
	<path d="M151.51,299.16c-4.37,0-8.73-1.68-12.06-4.98c-3.21-3.21-4.98-7.5-4.98-12.06c0-4.54,1.77-8.83,4.98-12.06l24.11-24.11   c3.66-3.66,8.69-5.42,13.84-4.9c2.34,0.26,4.03,2.34,3.81,4.69c-0.26,2.34-2.34,4.03-4.69,3.81c-2.57-0.27-5.1,0.62-6.93,2.44   l-24.11,24.11c-1.62,1.62-2.5,3.75-2.5,6.02c0,2.27,0.88,4.42,2.5,6.02c3.32,3.32,8.73,3.32,12.06,0l24.11-24.11   c1.62-1.62,2.5-3.75,2.5-6.02c0-0.3-0.01-0.6-0.06-0.88c-0.26-2.34,1.43-4.43,3.78-4.69c2.34-0.26,4.43,1.43,4.69,3.78   c0.07,0.58,0.09,1.21,0.09,1.79c0,4.54-1.77,8.83-4.98,12.06l-24.11,24.11C160.24,297.48,155.87,299.16,151.51,299.16   L151.51,299.16z"/>
	<path d="M184.65,261.75c-3.27,0-6.55-1.25-9.03-3.75c-4.98-4.98-4.98-13.09,0-18.06l36.14-36.14c4.98-4.98,13.09-4.98,18.06,0   c4.98,4.98,4.98,13.09,0,18.06l-36.14,36.14C191.2,260.52,187.92,261.75,184.65,261.75z M220.78,208.58   c-1.08,0-2.19,0.41-3.01,1.25l-36.14,36.14c-1.68,1.68-1.68,4.37,0,6.02c1.66,1.65,4.37,1.68,6.02,0l36.14-36.14   c1.68-1.68,1.68-4.37,0-6.02C222.96,208.99,221.88,208.58,220.78,208.58L220.78,208.58z"/>
	<path d="M229.82,237.89c-5.65,0-11.25-1.42-16.2-4.1c-2.07-1.12-2.84-3.71-1.72-5.76c1.12-2.07,3.71-2.84,5.76-1.72   c3.71,2,7.92,3.07,12.15,3.07h0.01c6.83,0,13.23-2.67,18.06-7.5l24.11-24.11c4.83-4.83,7.5-11.25,7.5-18.06   c0-6.83-2.67-13.23-7.5-18.06c-9.95-9.95-26.18-9.95-36.14,0l-24.11,24.11c-7.94,7.94-9.77,20.38-4.42,30.23   c1.12,2.07,0.35,4.66-1.72,5.76c-2.07,1.12-4.66,0.35-5.76-1.72c-3.42-6.32-4.76-13.74-3.78-20.9c1.02-7.4,4.37-14.11,9.66-19.42   l24.11-24.11c6.45-6.45,14.99-9.97,24.11-9.97c9.1,0,17.66,3.55,24.11,9.97c6.45,6.43,9.97,14.99,9.97,24.11   c0,9.1-3.55,17.66-9.97,24.11l-24.11,24.11C247.47,234.34,238.92,237.89,229.82,237.89L229.82,237.89z"/>
	<path d="M229.82,220.85c-0.6,0-1.21-0.03-1.79-0.09c-2.34-0.26-4.03-2.34-3.78-4.69c0.26-2.34,2.34-4.03,4.69-3.78   c0.3,0.03,0.6,0.06,0.88,0.06c2.27,0,4.42-0.88,6.02-2.5l24.11-24.11c3.32-3.32,3.32-8.73,0-12.06c-3.32-3.32-8.73-3.32-12.06,0   l-24.11,24.11c-1.83,1.83-2.71,4.34-2.44,6.93c0.26,2.34-1.45,4.43-3.81,4.69c-2.34,0.26-4.43-1.45-4.69-3.81   c-0.55-5.14,1.25-10.2,4.9-13.84l24.11-24.11c6.65-6.65,17.45-6.65,24.11,0c6.65,6.65,6.65,17.45,0,24.11l-24.11,24.11   C238.65,219.07,234.38,220.85,229.82,220.85L229.82,220.85z"/>
	<path d="M168.64,145.8H91.96c-2.36,0-4.26-1.9-4.26-4.26c0-2.36,1.9-4.26,4.26-4.26h76.68c2.36,0,4.26,1.9,4.26,4.26   C172.9,143.9,170.99,145.8,168.64,145.8z"/>
	<path d="M177.16,162.84h-85.2c-2.36,0-4.26-1.9-4.26-4.26c0-2.36,1.9-4.26,4.26-4.26h85.2c2.36,0,4.26,1.9,4.26,4.26   C181.42,160.94,179.51,162.84,177.16,162.84z"/>
	<path d="M177.16,179.88h-85.2c-2.36,0-4.26-1.9-4.26-4.26c0-2.36,1.9-4.26,4.26-4.26h85.2c2.36,0,4.26,1.9,4.26,4.26   C181.42,177.98,179.51,179.88,177.16,179.88z"/>
	<path d="M177.16,196.92h-85.2c-2.36,0-4.26-1.9-4.26-4.26c0-2.36,1.9-4.26,4.26-4.26h85.2c2.36,0,4.26,1.9,4.26,4.26   C181.42,195.02,179.51,196.92,177.16,196.92z"/>
	<path d="M168.64,213.96H91.96c-2.36,0-4.26-1.9-4.26-4.26c0-2.36,1.9-4.26,4.26-4.26h76.68c2.36,0,4.26,1.9,4.26,4.26   C172.9,212.06,170.99,213.96,168.64,213.96z"/>
	<path d="M313.47,252.3h-76.68c-2.36,0-4.26-1.9-4.26-4.26c0-2.36,1.9-4.26,4.26-4.26h76.68c2.36,0,4.26,1.9,4.26,4.26   C317.73,250.39,315.83,252.3,313.47,252.3z"/>
	<path d="M313.47,269.34h-85.2c-2.36,0-4.26-1.9-4.26-4.26s1.9-4.26,4.26-4.26h85.2c2.36,0,4.26,1.9,4.26,4.26   S315.83,269.34,313.47,269.34z"/>
	<path d="M313.47,286.38h-85.2c-2.36,0-4.26-1.9-4.26-4.26s1.9-4.26,4.26-4.26h85.2c2.36,0,4.26,1.9,4.26,4.26   S315.83,286.38,313.47,286.38z"/>
	<path d="M313.47,303.42h-85.2c-2.36,0-4.26-1.9-4.26-4.26s1.9-4.26,4.26-4.26h85.2c2.36,0,4.26,1.9,4.26,4.26   S315.83,303.42,313.47,303.42z"/>
	<path d="M313.47,320.45h-76.68c-2.36,0-4.26-1.9-4.26-4.26s1.9-4.26,4.26-4.26h76.68c2.36,0,4.26,1.9,4.26,4.26   S315.83,320.45,313.47,320.45z"/>
</g>
</svg>