<svg xmlns="http://www.w3.org/2000/svg" xmlns:xlink="http://www.w3.org/1999/xlink" version="1.1" id="Layer_1" x="0px" y="0px" style="enable-background:new 0 0 400 400;" xml:space="preserve" viewBox="75.88 49.54 269.26 298.51">
<path d="M150.76,193.84L150.76,193.84c2.48,0.5,4.96-1.49,5.45-3.97c2.98-14.88,14.88-26.28,29.26-30.25  c2.48-0.5,3.97-2.98,3.47-5.45l0,0c-0.5-2.98-3.47-4.96-5.95-3.97c-18.35,4.46-32.23,18.84-36.69,37.19  C145.8,190.37,147.78,193.34,150.76,193.84z"/>
<rect x="105.63" y="79.29" width="104.13" height="9.92"/>
<rect x="105.63" y="109.04" width="104.13" height="9.92"/>
<rect x="105.63" y="287.56" width="148.76" height="9.92"/>
<path d="M142.33,257.81h-36.69v9.92h51.08C151.26,264.75,146.79,261.77,142.33,257.81z"/>
<path d="M121.5,228.05h-15.87v9.92h20.83C124.48,235,122.99,231.53,121.5,228.05z"/>
<path d="M115.55,198.3h-9.92v9.92h10.41C116.05,204.75,115.55,201.77,115.55,198.3z"/>
<path d="M121.5,168.55h-15.87v9.92h12.4C119.02,175,120.02,171.52,121.5,168.55z"/>
<path d="M142.33,138.8h-36.69v9.92h27.27C135.88,145.24,138.86,141.77,142.33,138.8z"/>
<path d="M279.19,255.82c1.98,0,3.47,0.5,4.96,0.99V114.99c0-3.97-1.49-7.93-4.46-10.41L229.11,54c-2.98-2.98-6.45-4.46-10.41-4.46  H90.76c-8.43,0-14.88,6.45-14.88,14.88v267.77c0,8.43,6.45,14.88,14.88,14.88h178.52c8.43,0,14.88-6.45,14.88-14.88v-9.42  l-9.92-9.92v19.34c0,2.98-1.98,4.96-4.96,4.96h-49.59h-4.96H90.76c-2.98,0-4.96-1.98-4.96-4.96V64.42c0-2.98,1.98-4.96,4.96-4.96  h123.97c2.98,0,4.96,1.98,4.96,4.96v34.71c0,8.43,6.45,14.88,14.88,14.88h34.71c2.98,0,4.96,1.98,4.96,4.96v137.36  C275.72,255.82,277.21,255.82,279.19,255.82z M234.01,105c-5.45-1.13-6.79-6.3-6.81-10.91l0.1-31.72l21.69,22.92l21.48,21.08  L234.01,105z"/>
<path d="M342.17,324.25l-56.03-56.03c-3.97-3.47-10.41-3.47-13.88,0l-24.79-24.79c10.41-12.4,16.86-27.77,16.86-45.12  c0-38.18-31.24-69.42-69.42-69.42c-38.18,0-69.42,31.24-69.42,69.42c0,38.18,31.24,69.42,69.42,69.42  c17.36,0,33.22-6.45,45.62-17.36l24.79,24.79c-3.97,3.97-3.97,9.92,0,13.88l56.03,56.03c3.97,3.97,9.92,3.97,13.88,0l6.94-6.94  C346.13,334.17,346.13,328.22,342.17,324.25z M194.89,257.81c-32.73,0-59.51-26.78-59.51-59.51c0-32.73,26.78-59.51,59.51-59.51  c32.73,0,59.51,26.78,59.51,59.51C254.4,231.03,227.62,257.81,194.89,257.81z M321.94,336.47l-46.78-46.78  c-12.8-9.99,3.1-23.48,11.97-11.97l46.78,46.78C341.85,331.34,330.25,344.53,321.94,336.47z"/>
</svg>