<svg xmlns="http://www.w3.org/2000/svg" xmlns:xlink="http://www.w3.org/1999/xlink" version="1.1" id="Layer_1" x="0px" y="0px" style="enable-background:new 0 0 400 400;" xml:space="preserve" viewBox="62.59 83.36 280.6 238.8">
<path d="M338.76,281.25h-6.02V128.55c-0.01-7.96-6.46-14.41-14.42-14.42h-12.54l4.09-9.87c1.03-2.48,1.03-5.28,0-7.77  c-1.03-2.48-3-4.46-5.49-5.49l-8.78-3.64v0.01c-5.17-2.15-11.11,0.31-13.26,5.49l-8.8,21.26h-14.88c-0.22-0.45-0.51-0.86-0.86-1.21  l-28.26-28.26v-0.01c-0.84-0.82-1.97-1.28-3.14-1.28h-98.67c-6.59,0-11.92,5.33-11.92,11.92v18.85H87.47  c-7.96,0.01-14.41,6.46-14.42,14.42v152.68h-6.02c-2.45,0-4.44,1.98-4.44,4.43v14.22c0,12.3,9.97,22.26,22.26,22.28h236.08  c12.29-0.01,22.26-9.97,22.26-22.28v-14.22v0.01C343.2,283.22,341.22,281.25,338.76,281.25L338.76,281.25z M127.73,251.29h119.44  c6.57-0.01,11.89-5.34,11.9-11.92v-29.44l13-15.08v-0.01c0.28-0.37,0.53-0.77,0.74-1.19l22.41-54.09h12.09v125.16H98.47V139.55  h17.34v99.82C115.82,245.95,121.15,251.27,127.73,251.29L127.73,251.29z M230.84,98.51l13.11,13.11l-13.12,0.01L230.84,98.51z   M259.1,139.56h3.9l-3.9,9.41V139.56z M283.53,113.2l11.13,4.61l-28.31,68.34l-11.14-4.61L283.53,113.2z M252.36,204.14l1.03-13.75  l7.98,3.3L252.36,204.14z M290.53,96.26c0.28-0.64,1.01-0.94,1.66-0.69l8.78,3.64c0.64,0.28,0.94,1.01,0.69,1.66l-3.62,8.74  l-11.13-4.63L290.53,96.26z M266.67,130.67l-7.59,0.01v-7.67h10.75L266.67,130.67z M124.68,95.28c0.01-1.69,1.36-3.04,3.05-3.05  h94.23v23.83c0,2.45,1.99,4.44,4.44,4.44h23.82v49.88l-4.91,11.87c-0.18,0.43-0.29,0.89-0.33,1.36l-2.47,33.28  c-0.13,1.89,0.93,3.65,2.68,4.4c1.74,0.75,3.75,0.31,5.03-1.09v19.16c0,1.68-1.36,3.04-3.05,3.04H127.73  c-1.69,0-3.04-1.36-3.05-3.04L124.68,95.28z M81.9,128.56h0.01c0-1.47,0.58-2.88,1.63-3.93c1.04-1.04,2.45-1.62,3.93-1.62h28.34  v7.67H94.04c-1.18,0-2.3,0.47-3.14,1.3c-0.83,0.83-1.3,1.95-1.3,3.14v134.03c0,1.17,0.47,2.3,1.3,3.14c0.83,0.83,1.95,1.3,3.14,1.29  h217.74c1.18,0.01,2.3-0.46,3.14-1.29c0.83-0.83,1.3-1.97,1.3-3.14V135.12c0-1.18-0.47-2.3-1.3-3.14c-0.83-0.83-1.95-1.3-3.14-1.3  h-12.86l3.17-7.67h16.23c3.06,0,5.55,2.48,5.55,5.55v152.69H81.93L81.9,128.56z M334.34,299.89c-0.01,7.41-6.01,13.4-13.4,13.41  H84.86c-7.39-0.01-13.39-6.01-13.4-13.41v-9.78l262.88,0.01L334.34,299.89z M180.38,301.72c0-1.18,0.47-2.3,1.3-3.14  c0.83-0.83,1.97-1.3,3.14-1.3h36.16c2.45,0,4.44,1.99,4.44,4.44c0,2.45-1.99,4.44-4.44,4.44h-36.16  C182.37,306.15,180.38,304.16,180.38,301.72L180.38,301.72z M136.47,133.48c0-1.17,0.47-2.3,1.3-3.14c0.83-0.83,1.95-1.3,3.14-1.3  H234c2.41,0.07,4.33,2.04,4.33,4.44s-1.92,4.38-4.33,4.44h-93.1c-1.18,0-2.3-0.47-3.14-1.3S136.47,134.66,136.47,133.48  L136.47,133.48z M136.47,154.07c0-1.18,0.47-2.3,1.3-3.14c0.83-0.83,1.95-1.3,3.14-1.3H234c2.41,0.07,4.33,2.04,4.33,4.44  s-1.92,4.37-4.33,4.44h-93.1C138.46,158.5,136.47,156.51,136.47,154.07L136.47,154.07z M136.47,174.65c0-1.18,0.47-2.32,1.3-3.15  c0.83-0.83,1.95-1.29,3.14-1.29H234c2.41,0.06,4.33,2.03,4.33,4.43c0,2.41-1.92,4.38-4.33,4.44h-93.1c-2.45,0-4.43-1.97-4.44-4.41  L136.47,174.65z M136.47,195.24v-0.01c0-2.45,1.99-4.44,4.44-4.44H234c2.41,0.07,4.33,2.04,4.33,4.44c0,2.41-1.92,4.38-4.33,4.44  h-93.1c-2.45,0-4.43-1.97-4.44-4.41V195.24z M136.47,215.83v-0.01c0-1.18,0.47-2.3,1.3-3.14c0.83-0.83,1.95-1.3,3.14-1.3H234  c2.41,0.07,4.33,2.04,4.33,4.44s-1.92,4.37-4.33,4.44h-93.1c-2.44,0-4.43-1.97-4.44-4.4L136.47,215.83z"/>
</svg>