<svg xmlns="http://www.w3.org/2000/svg" xmlns:xlink="http://www.w3.org/1999/xlink" version="1.1" id="Layer_1" x="0px" y="0px" style="enable-background:new 0 0 400 400;" xml:space="preserve" viewBox="41.25 70.17 330.51 251.46">
<style type="text/css">
	.st0{fill-rule:evenodd;clip-rule:evenodd;}
</style>
<g>
	<path class="st0" d="M330.48,321.63H82.54c-22.77,0-41.29-15.25-41.29-33.99v-12.98c0-2.43,1.98-4.4,4.4-4.4h321.71   c2.43,0,4.4,1.98,4.4,4.4v12.98c0,18.74-18.52,33.99-41.29,33.99H330.48z M50.05,279.06v8.58c0,13.9,14.57,25.2,32.49,25.2h247.94   c17.91,0,32.49-11.3,32.49-25.2v-8.58H50.05z"/>
	<path class="st0" d="M312.84,309.68c-8.94,0-13.62-6.91-13.62-13.74c0-3.51,1.2-6.83,3.4-9.32c2.49-2.85,6.13-4.42,10.21-4.42   c8.95,0,13.62,6.91,13.62,13.74c0,3.51-1.21,6.83-3.4,9.32c-2.51,2.85-6.13,4.42-10.23,4.42H312.84z M312.84,291.01   c-1.58,0-2.79,0.48-3.62,1.42c-0.77,0.88-1.21,2.16-1.21,3.53c0,0.83,0.23,4.95,4.83,4.95c1.58,0,2.79-0.48,3.62-1.42   c0.77-0.88,1.21-2.16,1.21-3.53C317.67,295.13,317.44,291.01,312.84,291.01z"/>
	<path class="st0" d="M339.76,279.06c-2.43,0-4.4-1.98-4.4-4.4V87.73c0-4.83-3.94-8.77-8.77-8.77H86.41c-4.83,0-8.77,3.94-8.77,8.77   v186.93c0,2.43-1.98,4.4-4.4,4.4c-2.43,0-4.4-1.98-4.4-4.4V87.73c0-9.69,7.88-17.56,17.56-17.56h240.19   c9.69,0,17.56,7.88,17.56,17.56v186.93c0,2.43-1.96,4.4-4.4,4.4H339.76z"/>
	<path class="st0" d="M320.39,259.68H92.63c-2.43,0-4.4-1.98-4.4-4.4V93.93c0-2.43,1.98-4.4,4.4-4.4h227.77c2.43,0,4.4,1.98,4.4,4.4   v161.35C324.8,257.71,322.82,259.68,320.39,259.68z M97.03,250.89H316V98.35H97.03V250.89z"/>
	<path class="st0" d="M275.88,300.35H132.13c-2.43,0-4.4-1.98-4.4-4.4c0-2.43,1.98-4.4,4.4-4.4h143.73c2.43,0,4.4,1.98,4.4,4.4   C280.27,298.37,278.29,300.35,275.88,300.35L275.88,300.35z"/>
	<path class="st0" d="M100.17,309.68c-8.95,0-13.62-6.91-13.62-13.74c0-3.51,1.2-6.82,3.4-9.32c2.51-2.85,6.13-4.42,10.23-4.42   c8.95,0,13.62,6.91,13.62,13.74c0,3.51-1.2,6.83-3.4,9.32C107.89,308.12,104.26,309.68,100.17,309.68z M100.17,291.01   c-1.56,0-2.79,0.48-3.62,1.42c-0.77,0.88-1.21,2.16-1.21,3.53c0,0.83,0.23,4.95,4.83,4.95c1.56,0,2.79-0.48,3.62-1.42   c0.77-0.88,1.21-2.16,1.21-3.53C105,295.13,104.77,291.01,100.17,291.01z"/>
	<path class="st0" d="M251.24,241.93h-89.46c-2.79,0-5.49-1.16-7.41-3.19c-1.86-1.96-2.83-4.49-2.7-7.14l4.2-84.06   c0.27-5.55,4.71-9.89,10.11-9.89h81.06c5.4,0,9.83,4.35,10.11,9.89l4.2,84.06c0.13,2.65-0.83,5.19-2.69,7.14   C256.74,240.76,254.03,241.93,251.24,241.93z M165.98,146.43c-0.81,0-1.29,0.8-1.33,1.54l-4.2,84.06   c-0.01,0.22,0.09,0.44,0.27,0.65c0.27,0.28,0.66,0.45,1.05,0.45h89.46c0.39,0,0.77-0.17,1.05-0.45c0.19-0.21,0.28-0.43,0.27-0.65   l-4.2-84.06c-0.04-0.75-0.52-1.54-1.33-1.54h-81.05L165.98,146.43z"/>
	<path class="st0" d="M226.46,170.47c-2.43,0-4.4-1.98-4.4-4.4v-35.25c0-8.39-7.21-14.71-16.78-14.71   c-9.91,0-14.33,7.71-14.33,15.37v34.61c0,2.43-1.98,4.4-4.4,4.4c-2.43,0-4.4-1.98-4.4-4.4v-34.61c0-14,9.72-24.16,23.13-24.16   c14.33,0,25.57,10.33,25.57,23.52v35.25c0,2.43-1.98,4.4-4.4,4.4L226.46,170.47z"/>
	<path class="st0" d="M233.62,220.86H179.4c-2.58,0-4.97-0.93-6.39-2.48c-1.08-1.18-1.6-2.67-1.46-4.21l2.56-27.83   c0.31-3.41,3.62-5.89,7.85-5.89h49.14c4.22,0,7.53,2.48,7.85,5.89l2.54,27.84c0.14,1.54-0.37,3.02-1.46,4.21   c-1.42,1.55-3.81,2.48-6.39,2.48L233.62,220.86z M180.57,212.07h51.87l-2.09-22.82h-47.69L180.57,212.07z"/>
</g>
</svg>