<?xml version="1.0" encoding="utf-8"?>
<!-- Generator: Adobe Illustrator 23.0.5, SVG Export Plug-In . SVG Version: 6.00 Build 0)  -->
<svg version="1.1" id="Layer_1" xmlns="http://www.w3.org/2000/svg" xmlns:xlink="http://www.w3.org/1999/xlink" x="0px" y="0px"
	 viewBox="0 0 400 400" style="enable-background:new 0 0 400 400;" xml:space="preserve">
<style type="text/css">
	.st0{fill:#FFFFFF;}
</style>
<g>
	<path class="st0" d="M61.35,121.19c0-20.47,0-40.94,0-61.42c95.46,0,190.92,0,286.43,0c0,95.42,0,190.86,0,286.38
		c-95.44,0-190.94,0-286.43,0c0-17.42,0-34.91,0-52.4c2.39,5.36,6.58,6.96,12.31,6.93c31.45-0.18,62.9-0.09,94.36-0.09
		c1.07,0,2.14,0,3.53,0c-0.37,1.1-0.54,1.8-0.83,2.45c-4.11,9.56-8.29,19.09-12.31,28.68c-0.87,2.07-1.91,2.9-4.26,2.83
		c-6.51-0.19-13.03-0.07-19.54-0.06c-2.4,0-3.91,1.13-4.14,3.58c-0.22,2.32,1.3,3.87,3.92,4.11c0.83,0.08,1.67,0.04,2.51,0.04
		c18.42,0,36.85,0,55.27,0c26.71,0,53.41,0,80.12,0c4.35,0,6.22-1.14,6.28-3.81c0.06-2.7-1.85-3.92-6.1-3.92
		c-6.05,0-12.1-0.08-18.14,0.05c-1.85,0.04-2.8-0.49-3.54-2.23c-4.18-9.83-8.49-19.61-12.74-29.41c-0.28-0.65-0.45-1.34-0.77-2.31
		c1.37,0,2.47,0,3.56,0c31.82,0,63.65,0.01,95.47-0.01c7.37,0,10.97-3.62,10.97-10.95c0-54.9,0-109.8,0-164.71
		c0-7.5-3.57-11.03-11.16-11.04c-15.54-0.01-31.08,0-46.62,0c-0.99,0-1.97,0-3.15,0c0-10.89,0.02-21.4,0-31.9
		c-0.03-11.51-7.36-18.87-18.83-18.87c-42.15-0.01-84.31-0.01-126.46,0c-11.39,0-18.72,7.28-18.76,18.62
		c-0.03,8-0.01,16.01-0.01,24.01c0,2.65,0,5.31,0,8.14c-1.43,0-2.44,0-3.45,0c-15.26,0-30.52,0.14-45.78-0.07
		C67.3,113.74,63.36,115.72,61.35,121.19z"/>
	<path d="M61.35,121.19c2-5.47,5.94-7.46,11.7-7.38c15.26,0.21,30.52,0.07,45.78,0.07c1.01,0,2.02,0,3.45,0c0-2.83,0-5.49,0-8.14
		c0-8-0.02-16.01,0.01-24.01c0.04-11.34,7.37-18.62,18.76-18.62c42.15-0.01,84.31-0.01,126.46,0c11.46,0,18.8,7.36,18.83,18.87
		c0.02,10.5,0,21.01,0,31.9c1.18,0,2.16,0,3.15,0c15.54,0,31.08-0.01,46.62,0c7.59,0,11.16,3.54,11.16,11.04
		c0,54.9,0,109.8,0,164.71c0,7.33-3.59,10.95-10.97,10.95c-31.82,0.01-63.65,0.01-95.47,0.01c-1.09,0-2.19,0-3.56,0
		c0.32,0.97,0.48,1.66,0.77,2.31c4.25,9.8,8.57,19.58,12.74,29.41c0.74,1.74,1.68,2.27,3.54,2.23c6.05-0.13,12.1-0.05,18.14-0.05
		c4.26,0,6.16,1.23,6.1,3.92c-0.06,2.67-1.93,3.81-6.28,3.81c-26.71,0-53.41,0-80.12,0c-18.42,0-36.85,0-55.27,0
		c-0.84,0-1.68,0.04-2.51-0.04c-2.62-0.25-4.14-1.8-3.92-4.11c0.23-2.45,1.74-3.58,4.14-3.58c6.51-0.01,13.03-0.13,19.54,0.06
		c2.35,0.07,3.39-0.76,4.26-2.83c4.02-9.6,8.2-19.13,12.31-28.68c0.28-0.65,0.46-1.35,0.83-2.45c-1.38,0-2.45,0-3.53,0
		c-31.45,0-62.91-0.1-94.36,0.09c-5.74,0.03-9.92-1.57-12.31-6.93C61.35,236.23,61.35,178.71,61.35,121.19z M303.59,182.21
		c8.5,4.9,16.72,9.63,24.92,14.37c3.36,1.95,3.85,3.55,1.98,6.82c-3.87,6.78-7.77,13.55-11.7,20.29c-1.89,3.25-3.6,3.67-6.92,1.77
		c-5.16-2.96-10.29-5.98-15.43-8.97c-3.1-1.8-6.21-3.6-9.44-5.47c-1.56,2.63-2.96,5.03-4.4,7.41c-1.31,2.17-3.07,2.76-5.45,1.66
		c-0.75-0.35-1.71-0.41-2.55-0.33c-2.39,0.23-4.77,0.88-7.15,0.88c-42.06,0.06-84.12,0.05-126.18,0.02c-1.76,0-3.56-0.03-5.27-0.41
		c-8.47-1.86-13.69-8.7-13.7-17.91c-0.03-25.78-0.01-51.55-0.01-77.33c0-1.08,0-2.16,0-3.42c-1.22,0-2.05,0-2.88,0
		c-15.54,0-31.08,0-46.62,0c-3.65,0-3.69,0.05-3.69,3.8c0,44.11,0,88.22,0,132.32c0,0.97,0,1.94,0,2.84c90.4,0,180.33,0,270.43,0
		c0-1.03,0-1.86,0-2.69c0-44.2,0-88.4,0-132.6c0-3.59-0.09-3.67-3.83-3.67c-15.45-0.01-30.89,0-46.34,0c-0.91,0-1.81,0.08-2.79,0.12
		c0,16.46,0,32.75,0,49.19c5.77-0.75,11.28-1.62,16.83-2.1c1.43-0.12,3.31,0.57,4.37,1.56c1.43,1.33,0.93,3.2-0.11,4.86
		C306.29,177.44,305.04,179.71,303.59,182.21z M278.51,112.7c-49.64,0-99,0-148.51,0c0,1.85,0,3.51,0,5.18
		c-0.03,28-0.07,56.01-0.08,84.01c0,7.25,3.72,11.11,10.92,11.12c42.33,0.03,84.67,0.02,127,0c1.62,0,3.24-0.3,5.11-0.48
		c-0.53-1.41-0.86-2.36-1.24-3.28c-3.99-9.48-8-18.95-11.98-28.44c-1.9-4.53-0.6-6.6,4.21-7.13c4.85-0.53,9.68-1.27,14.57-1.92
		C278.51,151.97,278.51,132.45,278.51,112.7z M339.51,268.46c-90.37,0-180.29,0-270.41,0c0,6.8,0,13.4,0,20c0,4.49,0,4.5,4.48,4.5
		c36.47,0,72.93,0,109.4,0c17.49,0,34.97,0,52.46,0c33.12,0,66.25,0,99.37,0c0.93,0,1.97,0.21,2.76-0.13
		c0.78-0.33,1.85-1.24,1.86-1.91C339.56,283.48,339.51,276.05,339.51,268.46z M278.59,104.73c0-8.05,0.04-15.85-0.01-23.65
		c-0.04-6.26-4.05-10.21-10.38-10.21c-42.61-0.02-85.21-0.02-127.82,0c-6.49,0-10.41,3.93-10.46,10.43
		c-0.05,7.07-0.02,14.14,0,21.21c0,0.71,0.15,1.41,0.24,2.22C179.62,104.73,228.89,104.73,278.59,104.73z M243.32,334.36
		c-0.36-0.89-0.62-1.57-0.91-2.24c-4.22-9.71-8.49-19.4-12.63-29.15c-0.77-1.81-1.75-2.44-3.72-2.42
		c-14.42,0.09-28.84,0.08-43.27,0.01c-1.94-0.01-2.95,0.52-3.73,2.4c-4.05,9.68-8.27,19.29-12.42,28.94
		c-0.32,0.74-0.57,1.52-0.92,2.48C191.6,334.36,217.24,334.36,243.32,334.36z M279.76,208.13c0.64-1.05,1.04-1.67,1.41-2.31
		c2.51-4.42,3.81-4.79,8.18-2.26c7.16,4.14,14.3,8.31,21.46,12.46c0.84,0.49,1.73,0.9,2.71,1.4c3.05-5.27,5.96-10.3,8.92-15.41
		c-0.86-0.52-1.4-0.87-1.95-1.19c-7.55-4.39-15.11-8.78-22.66-13.18c-3.7-2.15-4.08-3.66-1.93-7.48c0.42-0.75,0.83-1.52,1.53-2.81
		c-10.03,1.3-19.39,2.51-29.07,3.77C272.17,190.14,275.9,198.97,279.76,208.13z"/>
	<path class="st0" d="M303.59,182.21c1.46-2.5,2.7-4.78,4.08-6.97c1.04-1.66,1.54-3.53,0.11-4.86c-1.06-0.98-2.94-1.68-4.37-1.56
		c-5.55,0.48-11.06,1.35-16.83,2.1c0-16.44,0-32.73,0-49.19c0.98-0.05,1.88-0.12,2.79-0.12c15.45-0.01,30.89-0.01,46.34,0
		c3.74,0,3.83,0.09,3.83,3.67c0,44.2,0,88.4,0,132.6c0,0.83,0,1.66,0,2.69c-90.1,0-180.03,0-270.43,0c0-0.9,0-1.87,0-2.84
		c0-44.11,0-88.22,0-132.32c0-3.75,0.04-3.8,3.69-3.8c15.54-0.01,31.08,0,46.62,0c0.83,0,1.65,0,2.88,0c0,1.27,0,2.34,0,3.42
		c0,25.78-0.02,51.55,0.01,77.33c0.01,9.22,5.23,16.05,13.7,17.91c1.7,0.37,3.51,0.41,5.27,0.41c42.06,0.02,84.12,0.03,126.18-0.02
		c2.38,0,4.76-0.65,7.15-0.88c0.84-0.08,1.8-0.01,2.55,0.33c2.38,1.1,4.14,0.51,5.45-1.66c1.43-2.38,2.84-4.78,4.4-7.41
		c3.23,1.87,6.34,3.66,9.44,5.47c5.14,2.99,10.27,6.01,15.43,8.97c3.32,1.9,5.02,1.48,6.92-1.77c3.93-6.75,7.83-13.51,11.7-20.29
		c1.87-3.27,1.38-4.87-1.98-6.82C320.31,191.84,312.09,187.12,303.59,182.21z"/>
	<path class="st0" d="M278.51,112.7c0,19.75,0,39.27,0,59.05c-4.89,0.65-9.72,1.39-14.57,1.92c-4.82,0.53-6.12,2.6-4.21,7.13
		c3.98,9.48,7.99,18.96,11.98,28.44c0.39,0.92,0.71,1.87,1.24,3.28c-1.87,0.18-3.49,0.48-5.11,0.48c-42.33,0.03-84.67,0.04-127,0
		c-7.2-0.01-10.92-3.86-10.92-11.12c0.02-28,0.05-56.01,0.08-84.01c0-1.66,0-3.32,0-5.18C179.51,112.7,228.87,112.7,278.51,112.7z
		 M222.62,175.43c-4.23-7.88-8.17-15.35-12.28-22.72c-0.89-1.6-0.8-2.79-0.03-4.34c2.92-5.91,5.74-11.88,8.51-17.86
		c0.99-2.14,0.2-4.39-1.72-5.2c-2.23-0.93-4.02-0.26-5.16,1.88c-0.87,1.64-1.63,3.34-2.43,5.01c-1.52,3.21-3.04,6.42-4.75,10.03
		c-2.59-4.8-4.88-9.05-7.17-13.3c-0.31-0.57-0.6-1.15-0.94-1.71c-1.35-2.23-3.43-2.96-5.37-1.9c-1.94,1.07-2.57,3.29-1.38,5.55
		c3.12,5.92,6.25,11.83,9.53,17.66c0.98,1.75,0.95,3.12,0.07,4.89c-2.7,5.4-5.21,10.89-7.8,16.35c-0.85,1.78-1.72,3.55-2.72,5.61
		c-0.71-1.26-1.21-2.14-1.7-3.03c-7.88-14.54-15.76-29.08-23.64-43.62c-0.4-0.73-0.76-1.5-1.23-2.18c-1.18-1.67-2.85-2.16-4.66-1.34
		c-1.98,0.9-2.51,2.66-1.94,4.69c0.22,0.79,0.7,1.51,1.09,2.25c9.32,17.35,18.65,34.7,27.98,52.05c0.31,0.57,0.6,1.16,0.97,1.69
		c1.79,2.62,4.91,2.57,6.6-0.13c0.49-0.78,0.84-1.66,1.24-2.49c3.76-7.87,7.52-15.74,11.43-23.92c0.63,1.12,1.09,1.91,1.53,2.72
		c3.97,7.36,7.94,14.72,11.89,22.09c0.98,1.84,1.92,3.77,4.42,3.64c2.42-0.12,3.36-1.98,4.26-3.89
		c6.15-13.02,12.33-26.02,18.49-39.03c2.27-4.78,4.58-9.55,6.77-14.37c1.06-2.33,0.38-4.31-1.57-5.23
		c-1.94-0.92-4.01-0.18-5.17,1.89c-0.36,0.65-0.64,1.34-0.96,2.01c-6.89,14.42-13.77,28.83-20.66,43.25
		C223.7,173.3,223.25,174.18,222.62,175.43z M204.32,200.81c13.57,0,27.15,0,40.72,0c4.1,0,6-1.17,6.09-3.72
		c0.09-2.61-1.98-3.95-6.13-3.95c-27.15,0-54.29,0-81.44,0c-0.84,0-1.68-0.03-2.51,0.06c-2.19,0.22-3.41,1.6-3.5,3.66
		c-0.09,2.1,1.1,3.51,3.27,3.84c0.91,0.14,1.85,0.12,2.78,0.12C177.17,200.81,190.74,200.81,204.32,200.81z"/>
	<path class="st0" d="M339.51,268.46c0,7.59,0.05,15.03-0.08,22.45c-0.01,0.67-1.08,1.57-1.86,1.91c-0.79,0.34-1.83,0.13-2.76,0.13
		c-33.12,0-66.25,0-99.37,0c-17.49,0-34.97,0-52.46,0c-36.47,0-72.93,0-109.4,0c-4.47,0-4.48-0.01-4.48-4.5c0-6.6,0-13.2,0-20
		C159.22,268.46,249.15,268.46,339.51,268.46z M309.3,276.91c-2.41,0-4.82-0.03-7.22,0.01c-2.41,0.03-3.91,1.23-3.95,3.69
		c-0.04,2.46,1.45,3.83,3.81,3.89c4.72,0.13,9.45,0.13,14.17,0.03c2.58-0.06,4.1-1.73,3.94-4.04c-0.18-2.47-1.65-3.59-4.06-3.58
		C313.75,276.91,311.53,276.9,309.3,276.91z"/>
	<path class="st0" d="M278.59,104.73c-49.7,0-98.98,0-148.43,0c-0.09-0.81-0.24-1.51-0.24-2.22c-0.02-7.07-0.05-14.14,0-21.21
		c0.05-6.5,3.97-10.43,10.46-10.43c42.61-0.02,85.21-0.02,127.82,0c6.33,0,10.34,3.96,10.38,10.21
		C278.63,88.89,278.59,96.69,278.59,104.73z M134.44,87.83c-0.02,6.28,4.99,11.41,11.21,11.48c6.16,0.07,11.26-5.08,11.28-11.39
		c0.02-6.39-4.9-11.41-11.19-11.41C139.43,76.52,134.46,81.49,134.44,87.83z M159.15,87.95c0.04,6.2,5.3,11.46,11.39,11.37
		c6.17-0.09,11.32-5.35,11.27-11.5c-0.05-6.27-5.13-11.3-11.41-11.29C164.18,76.53,159.11,81.68,159.15,87.95z M184.02,88
		c0.05,6.29,5.23,11.45,11.36,11.32c6.22-0.13,11.23-5.31,11.18-11.55c-0.05-6.29-5.1-11.27-11.4-11.25
		C188.88,76.55,183.97,81.62,184.02,88z"/>
	<path class="st0" d="M243.32,334.36c-26.07,0-51.71,0-77.6,0c0.35-0.96,0.6-1.73,0.92-2.48c4.15-9.64,8.37-19.25,12.42-28.94
		c0.79-1.88,1.79-2.41,3.73-2.4c14.42,0.08,28.84,0.08,43.27-0.01c1.98-0.01,2.95,0.61,3.72,2.42c4.14,9.75,8.41,19.44,12.63,29.15
		C242.69,332.79,242.95,333.47,243.32,334.36z"/>
	<path class="st0" d="M279.76,208.13c-3.87-9.16-7.59-17.99-11.4-27.01c9.68-1.25,19.04-2.47,29.07-3.77
		c-0.7,1.29-1.1,2.06-1.53,2.81c-2.14,3.81-1.76,5.32,1.93,7.48c7.55,4.4,15.1,8.78,22.66,13.18c0.56,0.32,1.1,0.67,1.95,1.19
		c-2.96,5.11-5.87,10.14-8.92,15.41c-0.97-0.5-1.86-0.91-2.71-1.4c-7.16-4.14-14.3-8.31-21.46-12.46c-4.37-2.53-5.67-2.15-8.18,2.26
		C280.81,206.46,280.4,207.08,279.76,208.13z"/>
	<path d="M222.62,175.43c0.63-1.25,1.08-2.12,1.5-3.01c6.89-14.41,13.78-28.83,20.66-43.25c0.32-0.67,0.6-1.37,0.96-2.01
		c1.16-2.06,3.24-2.81,5.17-1.89c1.95,0.93,2.63,2.9,1.57,5.23c-2.2,4.82-4.51,9.58-6.77,14.37c-6.17,13.01-12.35,26.01-18.49,39.03
		c-0.9,1.91-1.85,3.76-4.26,3.89c-2.51,0.13-3.44-1.81-4.42-3.64c-3.95-7.37-7.92-14.73-11.89-22.09c-0.44-0.81-0.9-1.6-1.53-2.72
		c-3.91,8.18-7.67,16.05-11.43,23.92c-0.4,0.84-0.75,1.71-1.24,2.49c-1.69,2.7-4.81,2.75-6.6,0.13c-0.36-0.54-0.66-1.12-0.97-1.69
		c-9.33-17.35-18.66-34.7-27.98-52.05c-0.4-0.74-0.87-1.46-1.09-2.25c-0.57-2.03-0.04-3.78,1.94-4.69c1.81-0.83,3.48-0.34,4.66,1.34
		c0.48,0.68,0.84,1.45,1.23,2.18c7.88,14.54,15.76,29.08,23.64,43.62c0.48,0.89,0.99,1.77,1.7,3.03c1-2.06,1.87-3.83,2.72-5.61
		c2.59-5.45,5.1-10.95,7.8-16.35c0.88-1.77,0.92-3.14-0.07-4.89c-3.28-5.83-6.41-11.75-9.53-17.66c-1.19-2.26-0.56-4.48,1.38-5.55
		c1.94-1.06,4.02-0.34,5.37,1.9c0.34,0.56,0.63,1.14,0.94,1.71c2.29,4.25,4.58,8.5,7.17,13.3c1.71-3.61,3.22-6.82,4.75-10.03
		c0.8-1.68,1.56-3.38,2.43-5.01c1.14-2.13,2.93-2.81,5.16-1.88c1.92,0.81,2.71,3.06,1.72,5.2c-2.77,5.99-5.59,11.95-8.51,17.86
		c-0.77,1.56-0.86,2.74,0.03,4.34C214.45,160.08,218.39,167.55,222.62,175.43z"/>
	<path d="M204.32,200.81c-13.57,0-27.15,0-40.72,0c-0.93,0-1.87,0.02-2.78-0.12c-2.17-0.32-3.36-1.74-3.27-3.84
		c0.09-2.06,1.31-3.44,3.5-3.66c0.83-0.08,1.67-0.06,2.51-0.06c27.15,0,54.29,0,81.44,0c4.15,0,6.22,1.34,6.13,3.95
		c-0.09,2.56-1.98,3.72-6.09,3.72C231.46,200.81,217.89,200.81,204.32,200.81z"/>
	<path d="M309.3,276.9c2.22,0,4.45,0,6.67,0c2.42-0.01,3.89,1.11,4.06,3.58c0.17,2.31-1.35,3.98-3.94,4.04
		c-4.72,0.11-9.45,0.1-14.17-0.03c-2.35-0.06-3.85-1.43-3.81-3.89c0.04-2.46,1.54-3.66,3.95-3.69
		C304.49,276.88,306.9,276.91,309.3,276.9z"/>
	<path d="M134.44,87.83c0.02-6.34,4.98-11.31,11.3-11.31c6.28,0,11.2,5.02,11.19,11.41c-0.02,6.3-5.13,11.46-11.28,11.39
		C139.43,99.24,134.43,94.11,134.44,87.83z M146.03,84.28c-2.5,0.06-3.99,1.68-3.84,3.83c0.15,2.19,1.43,3.35,3.58,3.43
		c2.02,0.07,3.59-1.71,3.43-3.84C149.03,85.54,147.83,84.37,146.03,84.28z"/>
	<path d="M159.15,87.95c-0.04-6.27,5.03-11.42,11.25-11.43c6.27,0,11.35,5.02,11.41,11.29c0.05,6.16-5.1,11.42-11.27,11.5
		C164.45,99.41,159.19,94.15,159.15,87.95z M166.92,87.49c-0.05,2.31,1.41,3.96,3.31,4.08c1.99,0.12,3.79-1.55,3.85-3.56
		c0.06-2.05-1.59-3.75-3.66-3.7C168.16,84.35,167.18,85.73,166.92,87.49z"/>
	<path d="M184.02,88c-0.05-6.38,4.86-11.45,11.13-11.47c6.3-0.03,11.35,4.95,11.4,11.25c0.05,6.24-4.96,11.42-11.18,11.55
		C189.25,99.45,184.07,94.28,184.02,88z M195.08,84.29c-2.04,0.07-3.67,1.81-3.56,3.8c0.11,1.97,1.97,3.67,3.93,3.45
		c2.13-0.24,3.32-1.49,3.34-3.68C198.8,85.73,197.21,84.22,195.08,84.29z"/>
	<path class="st0" d="M146.03,84.28c1.8,0.09,3,1.26,3.16,3.42c0.16,2.13-1.41,3.91-3.43,3.84c-2.14-0.08-3.43-1.24-3.58-3.43
		C142.04,85.97,143.54,84.34,146.03,84.28z"/>
	<path class="st0" d="M166.92,87.49c0.26-1.75,1.24-3.14,3.51-3.19c2.07-0.05,3.71,1.65,3.66,3.7c-0.06,2.02-1.86,3.68-3.85,3.56
		C168.33,91.45,166.87,89.8,166.92,87.49z"/>
	<path class="st0" d="M195.08,84.29c2.12-0.07,3.72,1.44,3.7,3.57c-0.02,2.19-1.21,3.44-3.34,3.68c-1.96,0.22-3.82-1.49-3.93-3.45
		C191.41,86.1,193.04,84.36,195.08,84.29z"/>
</g>
</svg>
