<svg xmlns="http://www.w3.org/2000/svg" xmlns:xlink="http://www.w3.org/1999/xlink" version="1.1" id="Layer_1" x="0px" y="0px" style="enable-background:new 0 0 400 400;" xml:space="preserve" viewBox="58.42 60.2 288 288">
<g>
	<path d="M339.7,228.68c-35.52,12-65.76,17.76-93.12,18.72c-2.4-2.88-6.24-4.8-10.56-4.8h-19.2c-6.24,0-11.52,3.84-13.44,9.6h-5.76   c-8.16,0-14.4,6.24-14.4,14.4v19.2c0,8.16,6.24,14.4,14.4,14.4h5.76c1.44,4.32,4.8,7.68,9.6,9.12l6.72,28.32   c1.92,6.24,7.2,10.56,13.92,10.56c4.32,0,8.64-1.92,11.04-5.76c2.4-3.36,3.36-7.68,2.4-12l-5.28-21.6   c1.92-0.96,3.84-1.92,5.28-3.84c23.52,0.96,53.28,7.2,93.6,19.2l5.76,1.44v-99.36L339.7,228.68z M212.02,257   c0-2.88,1.92-4.8,4.8-4.8h19.2c1.92,0,3.36,0.96,4.32,2.4v42.72c-0.96,1.92-2.4,2.88-4.32,2.88h-19.2c-2.88,0-4.8-1.92-4.8-4.8V257   z M192.82,285.8v-19.2c0-2.88,1.92-4.8,4.8-4.8h4.8v28.8h-4.8C194.74,290.6,192.82,288.68,192.82,285.8z M236.5,336.2   c-0.48,1.44-1.92,1.92-3.36,1.92c-1.92,0-3.84-1.44-4.32-3.36l-6.24-24.96h9.6l5.28,22.56C237.46,333.8,237.46,335.24,236.5,336.2z    M336.82,313.16c-36-10.08-63.84-15.84-86.4-17.28v-0.48V257c25.44-0.96,54.24-6.72,86.4-17.28V313.16z"/>
	<polygon points="346.42,325.64 345.94,325.64 345.94,325.64  "/>
	<rect x="298.42" y="79.4" width="9.6" height="9.6"/>
	<path d="M187.54,165.8l-76.32-47.04v94.08L187.54,165.8z M120.82,136.04l48.48,29.76l-48.48,29.76V136.04z"/>
	<rect x="77.62" y="242.6" width="96" height="9.6"/>
	<rect x="77.62" y="261.8" width="96" height="9.6"/>
	<rect x="77.62" y="281" width="96" height="9.6"/>
	<path d="M308.02,117.8h-57.6v48h57.6V117.8z M298.42,156.2h-38.4v-28.8h38.4V156.2z"/>
	<path d="M250.42,223.4h57.6v-48h-57.6V223.4z M260.02,185h38.4v28.8h-38.4V185z"/>
	<path d="M178.42,300.2H68.02V233h163.2h4.8c1.44,0,3.36,0,4.8,0.48V108.2h76.8v117.12c3.36-0.96,6.24-1.92,9.6-2.88V60.2H58.42   v249.6h139.2C189.94,309.8,182.74,305.96,178.42,300.2z M231.22,223.4H68.02V108.2h163.2V223.4z M317.62,98.6h-28.8V69.8h28.8V98.6   z M279.22,69.8v28.8H68.02V69.8H279.22z"/>
</g>
</svg>