<svg version="1.2" xmlns="http://www.w3.org/2000/svg" viewBox="0 0 861 572" width="861" height="572">
	<title>error-svg</title>
	<style>
		.s0 { fill: #f2f2f2 } 
		.s1 { fill: #e4e4e4 } 
		.s2 { fill: #3b8ad2 } 
		.s3 { fill: #f0f0f0 } 
		.s4 { fill: #cccccc } 
		.s5 { fill: #3e7671 } 
		.s6 { opacity: .2;fill: #000000 } 
		.s7 { fill: #3f3d56 } 
		.s8 { fill: #aed8ff } 
	</style>
	<path id="Layer" class="s0" d="m435.7 160.5c-7.6-12.7-16.7-26.2-31-30.3-16.4-4.8-33.4 4.7-47.7 14.1q-16.1 10.5-31.9 21.5-15.8 11-31.3 22.4-15.5 11.4-30.7 23.3-15.2 11.8-30 24.1v0.5q46.2-3.2 92.5-6.4c22.2-1.5 45.3-3.3 64.9-13.8 7.5-4 14.8-9.4 23.2-9.7 10.6-0.5 19.7 6.8 26.9 14.5 42.6 45.4 55 114.8 102.8 154.6q-11.3-27.8-23.7-55.2-12.4-27.4-25.9-54.3-13.5-26.9-28-53.2-14.5-26.3-30.1-52.1z"/>
	<path id="Layer" class="s1" d="m697.6 545.4c-4.7-6-6.6-7.4-11.2-13.4q-56.8-73.4-106.8-151.8-33.9-53.2-64.4-108.5-14.6-26.3-28.3-53-10.7-20.7-20.9-41.6-2.9-6-5.7-12c-4.4-9.4-8.8-18.9-13.5-28.2-5.3-10.7-11.7-21.8-21.5-28.9q-1.7-1.3-3.5-2.3-1.8-1-3.7-1.8-2-0.7-4-1.2-2-0.4-4.1-0.6c-8-0.5-15.3 2.7-22.2 6.3-50.4 26.3-97.7 59.3-140.4 96.8q-16 14.1-31.2 29.1-15.2 15-29.5 30.9-14.3 15.9-27.6 32.5-13.4 16.7-25.7 34.1c-1 1.5-3.4 0.1-2.4-1.4q6-8.5 12.3-16.8 19.4-25.8 40.9-49.7 21.6-24 45.2-46 23.6-22 49-41.9 25.4-19.8 52.5-37.4 18.2-11.8 37.2-22.5c6.3-3.6 12.7-7.2 19.2-10.5 6.4-3.3 13.1-6.2 20.4-6.3 24.8-0.4 37.6 27.6 46.4 46.5q4.2 8.9 8.4 17.8 16.1 33.6 33.4 66.6 10.7 20.4 21.9 40.5 34.7 62.7 73.7 122.9c34.5 53.2 68.8 100.1 108.1 149.8 1.1 1.4-0.9 3.3-2 2z"/>
	<path id="Layer" class="s1" d="m245 191.4q-2.2-2.4-4.3-4.8c-11.5-12.7-23.7-25.2-39.4-32.4q-2.8-1.3-5.7-2.3-2.9-1.1-6-1.8-3-0.7-6.1-1-3-0.4-6.1-0.4c-8.6 0-17 2.2-24.9 5.4-3.7 1.5-7.4 3.2-11 5-4.1 2-8.1 4.3-12.2 6.5q-11.3 6.3-22.3 13.1-22 13.5-42.6 29.2-10.6 8.1-20.9 16.7-9.5 8.1-18.6 16.5c-1.3 1.2-3.3-0.7-2-1.9q2.5-2.2 4.9-4.5 6.9-6.2 14-12.1 12.9-11 26.5-21 21.2-15.7 43.8-29.3 11.3-6.7 22.9-12.9 3.5-1.9 7.1-3.6 2-1.1 4.1-2 2.1-1 4.2-1.8 2.1-0.9 4.3-1.7 2.1-0.7 4.3-1.4 3-1 6.2-1.7 3.2-0.6 6.4-0.9 3.2-0.4 6.4-0.3 3.2 0 6.5 0.4 3 0.4 6.1 1.2 3 0.7 6 1.7 2.9 1.1 5.8 2.4 2.8 1.3 5.6 2.8c15.4 8.6 27.3 21.9 38.9 34.9 1.2 1.3-0.7 3.3-1.9 2z"/>
	<path id="Layer" class="s1" d="m560.5 322.3l36.9-13.5 18.4-6.7c5.9-2.2 11.9-4.7 18.1-6.2q2-0.6 4-0.9 2.1-0.3 4.2-0.2 2 0 4.1 0.3 2 0.3 4 1 1.8 0.6 3.5 1.5 1.7 0.8 3.3 1.8 1.6 1 3.1 2.1 1.5 1.2 2.9 2.5 1.4 1.3 2.8 2.6 1.3 1.4 2.6 2.8 1.4 1.4 2.6 2.8 1.3 1.5 2.5 3c4 4.8 7.9 9.6 11.8 14.4q24.5 29.9 48.6 60.1 24.1 30.1 47.9 60.5 23.9 30.5 47.4 61.2 2.9 3.8 5.8 7.6c1 1.4 3.4 0 2.3-1.4q-23.7-31.1-47.7-61.8-24.1-30.9-48.5-61.5-24.4-30.6-49.2-60.9-6.1-7.6-12.3-15.1c-3.5-4.3-7-8.6-10.8-12.5-7-7.3-15.7-13.7-26.2-13.8-6.2-0.1-12.1 1.8-17.8 3.9-6.2 2.2-12.4 4.5-18.5 6.7l-37.2 13.6-9.3 3.4c-1.6 0.6-0.9 3.3 0.7 2.7z"/>
	<path id="Layer" class="s0" d="m196.4 170.1c-18.7-9.6-42.7-7.8-60 4.3q12.4 2.1 24.6 4.6 12.3 2.5 24.5 5.3 12.1 2.9 24.2 6.1 12.1 3.2 24.1 6.7c-13.3-7.8-23.7-20-37.4-27z"/>
	<path id="Layer" class="s0" d="m136.3 174.4l-3.7 2.9q1.9-1.5 3.8-2.9-0.1 0-0.1 0z"/>
	<path id="Layer" class="s0" d="m661.6 322.4c-3.6-4.4-7.5-9-13-10.8l-5.1 0.2c9.7 17 20.2 33.5 31.5 49.4 11.3 16 23.4 31.3 36.2 46 12.9 14.7 26.5 28.8 40.8 42.1 14.3 13.3 29.2 25.9 44.8 37.7q-67.6-82.3-135.2-164.6z"/>
	<path id="Layer" class="s0" d="m346.1 285.9q0.9 3.2 2.3 6.2 1.5 3 3.4 5.6 1.9 2.7 4.2 5 2.4 2.3 5.1 4.2c2.8 1.9 6.1 3.8 7.1 7q0.2 0.8 0.2 1.6 0.1 0.8 0 1.6-0.2 0.8-0.4 1.5-0.3 0.8-0.7 1.5-0.4 0.7-0.8 1.3-0.5 0.7-0.9 1.3-0.5 0.7-1 1.3-0.6 0.6-1.1 1.1l-0.2 0.5c-7-4.1-13.6-9.4-17.5-16.5-3.9-7.2-4.4-16.6 0.3-23.2z"/>
	<path id="Layer" class="s0" d="m579.1 488.9q0.9 3.2 2.3 6.2 1.5 3 3.4 5.6 1.9 2.7 4.2 5 2.4 2.3 5.1 4.2c2.8 1.9 6.1 3.8 7.1 7q0.2 0.8 0.2 1.6 0.1 0.8 0 1.6-0.2 0.8-0.4 1.5-0.3 0.8-0.7 1.5-0.4 0.7-0.8 1.3-0.5 0.7-0.9 1.3-0.5 0.7-1 1.3-0.6 0.6-1.1 1.1l-0.2 0.5c-7-4.1-13.6-9.4-17.5-16.5-3.9-7.2-4.4-16.6 0.3-23.2z"/>
	<path id="Layer" class="s0" d="m114.1 474.9q0.9 3.2 2.3 6.2 1.5 3 3.4 5.6 1.9 2.7 4.2 5 2.4 2.3 5.1 4.2c2.8 1.9 6.1 3.8 7.1 7q0.2 0.8 0.2 1.6 0.1 0.8 0 1.6-0.2 0.8-0.4 1.5-0.3 0.8-0.7 1.5-0.4 0.7-0.8 1.3-0.5 0.7-0.9 1.3-0.5 0.7-1 1.3-0.6 0.6-1.1 1.1l-0.2 0.5c-7-4.1-13.6-9.4-17.5-16.5-3.9-7.2-4.4-16.6 0.3-23.2z"/>
	<path id="Layer" class="s2" d="m649.2 102c-28.2 0-51-22.8-51-51 0-28.2 22.8-51 51-51 28.3 0 51 22.8 51 51 0 28.2-22.7 51-51 51z"/>
	<path id="Layer" class="s3" d="m741.3 11.9c-24.7-3.4-53 10-59.4 34.1-1.6-4.3-4.5-8-8.3-10.5-3.9-2.5-8.4-3.7-13-3.5-4.5 0.3-8.9 2-12.5 4.8-3.5 2.9-6.1 6.9-7.3 11.3l2.9 2q19.8 4.3 39.9 6.4 20.2 2.1 40.4 2 20.3-0.1 40.4-2.3 20.2-2.3 39.9-6.8c-17.2-18.1-38.3-34.2-63-37.5z"/>
	<path id="Layer" class="s3" d="m635.3 79.9c-24.7-3.4-53 10-59.4 34.1-1.6-4.3-4.5-8-8.3-10.5-3.9-2.5-8.4-3.7-13-3.5-4.5 0.3-8.9 2-12.5 4.8-3.5 2.9-6.1 6.9-7.3 11.3l2.9 2q19.8 4.3 39.9 6.4 20.2 2.1 40.4 2 20.3-0.1 40.4-2.3 20.2-2.3 39.9-6.8c-17.2-18.1-38.3-34.2-63-37.5z"/>
	<path id="Layer" class="s4" d="m851 92.7q0 0-0.1 0 0 0 0 0-0.1 0-0.1 0-0.1 0-0.1 0c-264.4-83.6-497.4-72.7-646.4-48.8-20.2 3.2-40.6 7-60.4 11.2-5 1-10.3 2.2-15.6 3.3-6.3 1.4-12.5 2.9-18.5 4.3q-3.9 1-7.6 1.9c-3.8 0.9-7.6 1.9-11.7 2.9-4.5 1.2-9.2 2.5-13.8 3.7q0 0 0 0 0 0 0 0 0 0 0 0 0 0 0 0c-5.2 1.4-10.3 2.9-15.3 4.4q-4.1 1.1-7.8 2.3-0.4 0.1-0.8 0.2l-0.5 0.2q-0.5 0.1-1 0.2l-0.8 0.3q-1.4 0.4-2.8 0.9c-24.6 7.5-38.1 12.9-38.2 13q-0.4 0.1-0.8-0.1-0.3-0.1-0.5-0.5-0.2-0.4 0-0.8 0.2-0.3 0.5-0.5c0.2-0.1 13.7-5.5 38.4-13.1q1.4-0.4 2.8-0.8l0.8-0.3q0 0 0.1 0 0.4-0.1 0.9-0.3l0.5-0.1q0.4-0.1 0.8-0.3 3.7-1.1 7.8-2.3c5-1.4 10.2-2.9 15.3-4.3q0.1 0 0.1 0c4.6-1.3 9.3-2.5 13.8-3.7 4.1-1.1 8-2 11.7-3q3.8-0.9 7.6-1.8c6-1.5 12.3-2.9 18.6-4.3 5.3-1.2 10.5-2.3 15.6-3.4 19.9-4.2 40.2-7.9 60.5-11.2 149.2-23.9 382.5-34.9 647.3 48.9q0.4 0.1 0.6 0.4 0.2 0.3 0.1 0.7-0.1 0.3-0.3 0.6-0.3 0.2-0.7 0.2z"/>
	<path id="Layer" fill-rule="evenodd" class="s5" d="m263.2 420.5q0.1 0.3 0.2 0.6 0 0.4 0.1 0.7 0 0.3 0 0.7 0 0.7-0.2 1.4-0.1 0.8-0.4 1.4-0.3 0.7-0.7 1.3-0.4 0.6-0.9 1.2-2.2 2.6-4.5 5.1-1.6 1.6-3.2 3.2-1.6 1.6-3.3 3.1-1.7 1.5-3.5 2.9-1.7 1.4-3.5 2.7-1.7 1.3-3.4 2.4-3.2 2.2-6.5 4.1-2.1 1.3-4.3 2.4-6.4 3.3-13.2 5.7-6.8 2.4-13.8 3.8-7 1.5-14.2 1.9-7.2 0.5-14.4-0.1-2-0.1-4-0.4-0.4 0-0.8-0.1-4.5-0.5-8.9-1.5-4.5-0.9-8.8-2.3-4.4-1.3-8.6-2.9-4.2-1.7-8.3-3.7-1.9-1-3.8-2.1-1.8-1-3.6-2.1-1.9-1.1-3.6-2.3-1.8-1.2-3.5-2.5-1.2-0.8-2.4-1.6-0.3-0.3-0.6-0.5-0.4 0.6-0.7 1.2-0.3 0.6-0.6 1.2-0.4 0.6-0.7 1.1-0.4 0.6-0.8 1.2-1 1.5-2.1 2.9-1.2 1.4-2.5 2.7-1.3 1.2-2.8 2.3-1.5 1.1-3.1 1.9c-8.1 4.1-18.5 4.2-25.4-2.4-6.7-6.4-6.8-17.1-2-24.6q1.4-2.2 3.3-4 1.9-1.9 4.1-3.2 2.3-1.4 4.7-2.3 2.5-0.9 5.1-1.2 0.9-0.1 1.8-0.1 0.9-0.1 1.7-0.1 0.9 0 1.8 0 0.9 0.1 1.7 0.2h0.5q1.1 0.2 2.3 0.4 1.1 0.2 2.2 0.5 1.1 0.2 2.2 0.6 1.1 0.3 2.1 0.7 0.4-1.1 0.9-2.2 0.6-1.6 1.3-3.3 1.1-2.9 2.2-5.8 0.6-1.5 1.1-3 1.2-3 2.3-6 9.2-24.9 16.9-50.3 0.5-1.7 1-3.4 3.5-11.6 6.7-23.4 0.7-2.4 1.3-4.8 0.4-1.4 1.3-2.6 1-1.2 2.3-1.9 1.2-0.7 2.7-0.9 1.5-0.2 2.9 0.1c4 1 6.3 5.5 5.3 9.3q-0.7 2.5-1.4 5-0.2 0.9-0.4 1.7-2.4 8.8-5 17.5-0.5 1.7-1 3.4-5 16.6-10.5 32.9c-3.7 10.8-7.6 21.5-11.7 32.2q-0.7 2-1.6 4.1-1.6 4.2-3.3 8.5 1.5 1 3 2.1 2.4 1.7 4.9 3.4 2.5 1.6 5.1 3.2 2.6 1.5 5.3 2.9 2.6 1.3 5.3 2.6 2.2 0.9 4.5 1.7 2.2 0.8 4.4 1.4 2.3 0.7 4.6 1.3 2.3 0.6 4.6 1 2.4 0.5 4.9 0.9 2.1 0.3 4.2 0.4 5.2 0.5 10.4 0.4 5.2-0.1 10.4-0.9 5.2-0.7 10.2-2.1 5-1.4 9.9-3.4 0.5-0.2 1-0.4 1.8-0.8 3.6-1.6 1.9-0.9 3.6-1.9 1.8-0.9 3.6-1.9 1.7-1 3.4-2.1 2.7-1.8 5.4-3.7 0.2-0.2 0.5-0.4 0 0-0.1 0 0.2-0.1 0.5-0.3 0 0 0 0 0 0 0 0 0 0 0-0.1 0 0 0 0 0.1 0 0.1 0 0 0 0 0 0.1-0.1 0.2-0.2 1.1-0.9 2.2-1.8 0.8-0.6 1.5-1.3 1.4-1.1 2.7-2.4 0.3-0.3 0.7-0.7 0.6-0.5 1.1-1.1 2.1-2.1 4-4.3 1.2-1.3 2.3-2.6 0.1-0.1 0.1-0.2 0.1-0.1 0.2-0.2 0.1-0.1 0.2-0.2 0.1-0.1 0.2-0.1c2.5-2.2 6.4-1.8 9 0q0.1 0 0.2 0.1 0.1 0.1 0.2 0.2 0.2 0.1 0.3 0.2 0.1 0.1 0.2 0.2 0.3 0.2 0.5 0.6 0.3 0.3 0.5 0.6 0.2 0.3 0.4 0.7 0.2 0.4 0.3 0.7 0.1 0.4 0.2 0.7zm-162.5 19.8q0.4-0.6 0.8-1.1 0.3-0.6 0.7-1.2 0.3-0.5 0.7-1.1 0.3-0.6 0.6-1.2-0.5-0.1-1-0.3-0.5-0.1-1-0.3-0.5-0.1-1.1-0.2-0.5-0.1-1-0.2-0.6 0-1.1-0.1-0.6 0-1.1 0-0.6 0-1.1 0-0.6 0-1.1 0.1-0.4 0-0.8 0.1-0.3 0.1-0.7 0.2-0.4 0.1-0.7 0.2-0.4 0.1-0.7 0.3-0.3 0.1-0.5 0.2-0.2 0.1-0.4 0.2-0.2 0.2-0.5 0.3-0.2 0.1-0.4 0.3-0.4 0.4-0.8 0.8-0.3 0.2-0.5 0.5 0 0 0 0c-0.1 0.2-0.2 0.4-0.2 0.4q-0.1 0.2-0.2 0.3-0.1 0.2-0.2 0.3-0.1 0.2-0.2 0.3-0.1 0.2-0.1 0.4-0.1 0.2-0.2 0.4-0.1 0.3-0.1 0.5-0.1 0.2-0.2 0.5 0 0.2-0.1 0.4 0 0.2 0 0.4 0 0.2 0 0.3 0 0.2 0 0.4 0 0.1 0 0.3 0.1 0.4 0.2 0.8 0 0 0 0 0 0 0 0 0 0 0 0 0 0 0 0 0.2 0.3 0.4 0.6 0 0 0 0 0 0 0 0 0 0 0 0 0 0 0 0 0 0.1 0.1 0.1 0 0 0 0.1 0.1 0 0.1 0 0 0.1 0.1 0.1 0 0.1 0.2 0.2 0.3 0.2 0.7 0.4 0.2 0.1 0.3 0.1 0.2 0.1 0.4 0.1 0.2 0.1 0.4 0.1 0.1 0.1 0.3 0.1 0.3 0 0.6 0 0.2 0 0.5 0 0.3 0 0.5 0 0.3 0 0.6 0 0.3-0.1 0.7-0.1 0.3-0.1 0.6-0.2 0.4-0.1 0.7-0.2 0.4-0.1 0.7-0.3 0.7-0.3 1.3-0.7 0.1 0 0.1 0 0.1-0.1 0.1-0.1 0.1 0 0.1 0 0.1-0.1 0.1-0.1 0 0 0 0 0 0 0 0 0 0 0 0 0 0 0 0 0.2-0.1 0.4-0.3 0.3-0.2 0.6-0.5 0.3-0.3 0.6-0.6 0.2-0.2 0.5-0.5 0.3-0.3 0.5-0.6 0.4-0.4 0.7-0.8 0.1 0 0.1-0.1zm-2.7 2.9q-0.3 0.2-0.6 0.5c0.3-0.2 0.6-0.4 0.6-0.5zm-8.6-6q0 0.1-0.1 0.1 0 0.1-0.1 0.1 0 0.1 0 0.1 0 0 0.1-0.1 0 0 0-0.1 0.1 0 0.1-0.1 0.1 0 0.1-0.1-0.1 0.1-0.1 0.1z"/>
	<path id="Layer" class="s5" d="m232.9 317.7q-0.1 4.7-0.2 9.4-0.3 10.5-0.6 20.9-0.3 11.8-0.7 23.6-0.2 6.1-0.3 12.1-0.5 16.4-1 32.8 0 1.6-0.1 3.3-0.2 8.2-0.4 16.3-0.3 8.8-0.5 17.6-0.2 6.6-0.4 13.2-1.3 47.9-2.7 95.8 0 1.5-0.6 2.8-0.6 1.4-1.6 2.4-1.1 1.1-2.4 1.7-1.4 0.5-2.9 0.6-1.5 0-2.8-0.6-1.4-0.6-2.5-1.6-1-1.1-1.6-2.5-0.6-1.3-0.6-2.8 0.8-27 1.5-53.9 0.7-24.4 1.4-48.7 0.2-8 0.5-16.1 0.3-12.1 0.6-24.2 0.1-1.7 0.1-3.3 0.1-1.5 0.1-3 0.7-23.5 1.3-47 0.3-9.2 0.6-18.5 0.3-10.5 0.6-21 0.1-4.7 0.2-9.3 0.1-1.5 0.6-2.8 0.6-1.4 1.7-2.5 1-1 2.4-1.6 1.3-0.6 2.8-0.6 1.5 0 2.9 0.6 1.4 0.6 2.4 1.6 1.1 1.1 1.6 2.4 0.6 1.4 0.6 2.9z"/>
	<path id="Layer" class="s5" d="m644.4 319.8q-3 11.2-6.2 22.2-3.3 11.1-6.8 22.1-3.5 11-7.3 21.9-3.8 10.9-7.9 21.7c-3 8-6.1 15.9-9.4 23.7l0.8-1.7q-0.6 1.4-1.2 2.7-0.6 1.4-1.3 2.7-0.7 1.3-1.5 2.6-0.8 1.3-1.6 2.6-0.2 0.3-0.5 0.6 1.2-1.5 0.5-0.6-0.4 0.5-0.8 0.9-0.3 0.3-0.5 0.6-0.3 0.3-0.6 0.5-0.3 0.3-0.6 0.6-0.3 0.3-0.5 0.5-0.4 0.3-0.7 0.5l1-0.7c-0.1 0.2-0.9 0.6-1.1 0.7q-0.3 0.2-0.6 0.4-0.3 0.1-0.6 0.3-0.3 0.1-0.6 0.3-0.3 0.1-0.6 0.2l1.8-0.7q-0.6 0.2-1.1 0.4-0.5 0.1-1 0.3-0.6 0.1-1.1 0.3-0.5 0.1-1.1 0.2l2-0.3q-0.5 0.1-1.1 0.1-0.5 0-1 0-0.6 0-1.1 0-0.5 0-1.1-0.1l2 0.3q-0.4-0.1-0.9-0.2-0.4 0-0.8-0.2-0.4-0.1-0.9-0.2-0.4-0.2-0.8-0.3l1.8 0.7q-0.2-0.1-0.4-0.2-0.2-0.1-0.5-0.2-0.2-0.1-0.4-0.2-0.2-0.1-0.4-0.3c-0.3-0.1-1.1-0.8 0 0.1 1.1 0.8 0.1 0-0.1-0.2q-0.3-0.3-0.5-0.6c-0.9-0.9 1 1.6 0.4 0.5q-0.2-0.2-0.3-0.4-0.1-0.2-0.2-0.4-0.1-0.2-0.2-0.4-0.1-0.2-0.2-0.4l0.7 1.8q-0.1-0.4-0.2-0.7-0.1-0.3-0.2-0.6-0.1-0.4-0.2-0.7 0-0.3-0.1-0.7l0.3 2q-0.1-0.4-0.1-0.8 0-0.5 0-0.9 0-0.4 0-0.8 0-0.5 0.1-0.9l-0.3 2q0.1-0.5 0.2-0.9 0.1-0.5 0.2-1 0.1-0.4 0.3-0.9 0.1-0.4 0.3-0.9l-0.8 1.8q0.2-0.3 0.3-0.6 0.1-0.3 0.3-0.6 0.1-0.2 0.3-0.5 0.1-0.3 0.3-0.6 0.1-0.1 0.2-0.3 0.1-0.1 0.2-0.2 0-0.2 0.1-0.3 0.1-0.1 0.2-0.3c0.1 0.1-1.2 1.6-0.5 0.8q0.2-0.3 0.5-0.6 0.5-0.5 0.9-0.9c1.1-1-1.4 1-0.2 0.2q0.3-0.2 0.6-0.4 0.4-0.2 0.7-0.4 0.4-0.2 0.7-0.4 0.4-0.2 0.7-0.3l-1.8 0.7q0.6-0.2 1.3-0.4 0.6-0.2 1.2-0.4 0.6-0.2 1.3-0.3 0.6-0.1 1.2-0.2l-2 0.3q0.8-0.1 1.7-0.2 0.8 0 1.6 0 0.8 0 1.6 0.1 0.8 0 1.6 0.1l-2-0.2q1 0.1 2 0.3 1 0.3 2 0.5 1 0.3 2 0.7 1 0.3 1.9 0.7l-1.8-0.8c5.4 2.3 10.2 5.8 14.9 9.2q1.8 1.2 3.5 2.4 1.8 1.2 3.6 2.3 1.8 1.1 3.7 2.1 1.8 1.1 3.7 2.1 4.1 2 8.3 3.7 4.3 1.6 8.6 3 4.4 1.3 8.8 2.2 4.5 1 9 1.5c8.6 1.1 17.3 1.1 25.9 0 8.6-1.2 17-3.3 25-6.5 8.1-3.2 15.7-7.4 22.7-12.5 7.1-5.1 13.4-11.1 19-17.7q0.5-0.6 0.9-1.2 0.4-0.6 0.6-1.3 0.3-0.6 0.5-1.4 0.1-0.7 0.1-1.4 0-0.8-0.1-1.5-0.1-0.7-0.4-1.4-0.3-0.7-0.7-1.3-0.4-0.6-0.9-1.1c-2.8-2.6-8-3.3-10.7 0q-0.9 1.1-1.9 2.2-1 1.2-2 2.3-1 1.1-2 2.1-1.1 1.1-2.2 2.1-2 1.9-4.1 3.7-1.2 1-2.5 2c-0.4 0.3-1.6 1.2 0.3-0.2q-0.6 0.5-1.3 1-2.3 1.7-4.8 3.3-2.4 1.6-5 3.1-2.5 1.4-5.2 2.7-2.6 1.3-5.3 2.4l1.8-0.7q-2.9 1.2-5.9 2.2-3 1.1-6 1.9-3 0.8-6.1 1.4-3.1 0.7-6.2 1.1l2-0.3q-3.2 0.5-6.4 0.7-3.2 0.2-6.5 0.2-3.2 0-6.4-0.2-3.2-0.3-6.4-0.7l2 0.3q-3.3-0.5-6.4-1.1-3.2-0.7-6.3-1.5-3.1-0.9-6.2-1.9-3-1.1-6-2.3l1.8 0.8q-2.9-1.3-5.7-2.7-2.8-1.5-5.5-3-2.7-1.6-5.4-3.3-2.6-1.8-5.2-3.6-1.3-1-2.6-1.9-1.4-1-2.8-1.8-1.4-0.9-2.8-1.7-1.4-0.9-2.9-1.6-1.7-0.9-3.4-1.6-1.8-0.7-3.6-1.3-1.8-0.5-3.7-0.9-1.8-0.4-3.7-0.6c-9.4-1.1-19.1 2.6-24.2 10.7-4.8 7.5-4.8 18.2 1.9 24.6 6.9 6.6 17.3 6.5 25.5 2.4 7.8-3.9 12.5-12.1 15.8-19.9 7.4-17.5 14-35.3 20.1-53.3q9.1-26.6 16.5-53.8 0.9-3.3 1.8-6.7c1-3.8-1.2-8.3-5.2-9.2q-1.5-0.4-2.9-0.2-1.5 0.2-2.8 0.9-1.3 0.7-2.2 1.9-0.9 1.2-1.3 2.6z"/>
	<path id="Layer" class="s5" d="m719.2 317.7l-2.7 95.8-2.7 95.3-1.5 53.9q0 1.5 0.6 2.8 0.6 1.4 1.6 2.5 1.1 1 2.4 1.6 1.4 0.6 2.9 0.6 1.5-0.1 2.8-0.6 1.4-0.6 2.4-1.7 1.1-1 1.7-2.4 0.6-1.3 0.6-2.8l2.7-95.8 2.7-95.3 1.5-53.9q0-1.5-0.6-2.9-0.6-1.3-1.6-2.4-1.1-1-2.5-1.6-1.3-0.6-2.8-0.6-1.5 0-2.9 0.6-1.3 0.6-2.4 1.6-1 1.1-1.6 2.5-0.6 1.3-0.6 2.8z"/>
	<path id="Layer" fill-rule="evenodd" class="s6" d="m459.6 429.9h-45.7v106h-2.3v-69.6c0-4.8-0.9-9.5-2.8-13.9-1.8-4.4-4.5-8.5-7.9-11.8-3.3-3.4-7.4-6.1-11.8-7.9-4.4-1.9-9.1-2.8-13.9-2.8v106h-2.3v-106h-30.6v-2.3h30.6v-44.8h-30.6v-2.3h30.6v-27.1q1.1-0.6 2.3-1.1v28.2h36.4v-37.7q1.2-0.1 2.3-0.2v37.9h45.7v-30.5q1.2 0.5 2.3 1v29.5h40.1q1 1.2 1.9 2.3h-42v44.8h54.3v2.3h-54.3v106h-2.3zm-48-2.3v-44.7h-36.4v44.7zm48 0c0-5.9-1.2-11.7-3.4-17.1-2.3-5.4-5.6-10.4-9.7-14.5-4.2-4.2-9.1-7.5-14.5-9.7-5.5-2.3-11.3-3.4-17.2-3.4h-0.9v44.7z"/>
	<path id="Layer" class="s7" d="m445.4 504.1q-1.1 4.9-3 9.6-1.8 4.6-4.4 8.9-2.5 4.3-5.7 8.1-3.2 3.9-7 7.1-1.1 1-2.2 1.9-2.8 0.3-5.6 0.5-2.3 0.2-4.5 0.5h-0.3l-0.2-1.7-0.8-6.6q-2.2-3.6-3.5-7.6-1.4-4-1.8-8.2-0.4-4.2 0.1-8.4 0.5-4.2 1.9-8.2c2.7-7.2 7.5-13.4 12.2-19.7 6.4-8.6 12.8-17.1 13-27.6q1.2 1.5 2.3 3.1 1.1 1.6 2.1 3.3 1 1.7 1.8 3.4 0.9 1.7 1.7 3.5-0.7 0.3-1.4 0.8-0.7 0.4-1.4 0.8-0.6 0.5-1.2 1-0.6 0.6-1.1 1.2c-0.4 0.4-0.9 1-0.6 1.6 0.3 0.4 0.9 0.6 1.4 0.6q1.9 0.2 3.7 0.4 1.5 0.2 3 0.3 0.5 1.5 0.9 3 0.4 1.5 0.7 3.1 0.3 1.5 0.5 3 0.2 1.6 0.4 3.1 0.3 2.4 0.3 4.8 0.1 2.5-0.1 4.9-0.1 2.4-0.4 4.8-0.3 2.4-0.8 4.7z"/>
	<path id="Layer" class="s2" d="m478.6 477.9c-5.9 4.3-9.4 10.5-12.1 17.3q-1 0.3-2 0.8-0.9 0.4-1.8 1-1 0.6-1.8 1.3-0.8 0.7-1.5 1.5c-0.4 0.4-0.9 1-0.6 1.6 0.3 0.5 0.9 0.6 1.4 0.6q1.9 0.2 3.7 0.4c-2.6 8-5.1 16.4-9.8 23.2q-1.2 1.6-2.6 3.2-1.3 1.5-2.8 2.9-1.6 1.4-3.2 2.6-1.7 1.2-3.5 2.2-0.4 0.2-0.9 0.5-0.5 0.3-1 0.5-0.5 0.3-1.1 0.5-0.5 0.2-1 0.5-7.6 0.5-14.9 1.2-2.8 0.3-5.6 0.5-2.3 0.2-4.5 0.5-0.1-0.9 0-1.7 0.1-5.4 1.1-10.8 1.1-5.3 3-10.4 2-5.1 4.8-9.8 2.8-4.7 6.3-8.9 0.7-0.7 1.4-1.5 1.8-1.9 3.8-3.7 1.9-1.8 4-3.4 2.2-1.6 4.4-3 2.2-1.4 4.6-2.6 3.7-1.9 7.6-3.3 3.9-1.4 8-2.3 4.1-0.9 8.2-1.3 4.2-0.3 8.4-0.1z"/>
	<path id="Layer" class="s2" d="m419.2 535.1l-1.1 3.4-0.6 1.7q-2.3 0.2-4.5 0.5h-0.3q-2.5 0.2-5 0.5-0.6-0.8-1.3-1.5c-5.1-6.3-9-13.5-11.4-21.3-2.4-7.7-3.2-15.9-2.5-23.9 0.8-8.1 3.1-16 6.9-23.2 3.7-7.2 8.9-13.5 15.1-18.7-1.3 6.9 0.2 13.5 2.8 20.1q-0.4 0.1-0.8 0.3-0.7 0.3-1.4 0.8-0.7 0.4-1.4 0.8-0.6 0.5-1.2 1-0.6 0.6-1.1 1.2c-0.4 0.4-0.9 1-0.6 1.6 0.3 0.4 0.9 0.6 1.4 0.6q1.9 0.2 3.7 0.4 1.5 0.2 3 0.3 0.8 0.1 1.5 0.2 0.1 0.2 0.2 0.4c2.8 6.2 5.9 12.4 7.6 18.8q0.2 0.7 0.3 1.3 0.2 0.6 0.3 1.2 0.1 0.6 0.2 1.2 0.1 0.6 0.2 1.3 0.6 4.2 0.2 8.4-0.3 4.2-1.6 8.2-1.3 4-3.5 7.7-2.2 3.6-5.1 6.7z"/>
	<path id="Layer" class="s5" d="m519.9 390.1c-8.6-16.8-22-31-37.6-41.3q-5.9-3.9-12.2-7-6.3-3.2-13-5.5-6.6-2.3-13.5-3.8-6.9-1.5-13.9-2.1-3.7-0.4-7.4-0.4c-2.9-0.1-46.9 12.6-61.6 23q-5.5 3.8-10.5 8.2-5 4.5-9.5 9.5-4.4 4.9-8.3 10.4-3.8 5.5-7 11.4-3.2 5.9-5.6 12.2-2.4 6.3-3.9 12.8-1.5 6.6-2.2 13.2-0.7 6.7-0.5 13.4 0.3 6.8 1.4 13.5 1.1 6.6 2.9 13.1 1.9 6.5 4.5 12.8 2.6 6.2 6 12.1 3.2 5.9 7.2 11.3 4 5.4 8.6 10.3 4.6 4.9 9.8 9.2 5.1 4.3 10.8 7.9c15.3 9.8 30.7 35.8 48.8 36.7 18.3 0.9 39.1-23.6 55.7-31q6.3-2.8 12.1-6.4 5.8-3.6 11-7.9 5.3-4.3 10-9.2 4.7-5 8.7-10.5 3.9-5.4 7.1-11.2 3.2-5.9 5.6-12.1 2.5-6.2 4.2-12.6 1.7-6.4 2.7-13c2.5-18.1 1.3-36.8-4.8-54.1q-0.6-1.6-1.3-3.3-0.6-1.6-1.3-3.2-0.7-1.7-1.5-3.3-0.7-1.6-1.5-3.1c-1.8-3.5-7-4.8-10.3-2.7q-1.2 0.7-2.1 1.9-0.9 1.2-1.3 2.7-0.3 1.4-0.2 2.9 0.2 1.4 0.9 2.7 1.6 3.1 3 6.3l-0.8-1.8q1.3 3.1 2.3 6.2 1.1 3.2 2 6.4 0.8 3.2 1.5 6.4 0.6 3.3 1.1 6.6l-0.3-2q0.5 3.5 0.7 7.1 0.2 3.6 0.2 7.2 0 3.6-0.2 7.2-0.3 3.6-0.8 7.1l0.3-1.9q-0.5 3.5-1.2 7-0.7 3.6-1.7 7-0.9 3.5-2.1 6.9-1.2 3.4-2.6 6.7l0.8-1.8q-0.7 1.7-1.5 3.4-0.8 1.7-1.6 3.3-0.8 1.6-1.7 3.2-0.9 1.7-1.9 3.2-1.9 3.2-4 6.3-1 1.3-2 2.6c-0.8 1.1 1.2-1.5 0.3-0.4q-0.2 0.3-0.5 0.6-0.6 0.8-1.3 1.7-1.2 1.4-2.4 2.7-1.2 1.4-2.5 2.7-1.3 1.3-2.6 2.5-1.3 1.3-2.7 2.5-1.4 1.1-2.8 2.3c-0.5 0.4-0.9 0.8-1.4 1.1 0 0 1.6-1.2 0.6-0.5q-0.4 0.3-0.8 0.7-2.9 2.1-6 4-1.8 1.2-3.6 2.2-1.8 1-3.6 2-1.9 1-3.8 1.9-1.8 0.8-3.8 1.7l1.8-0.8q-3.3 1.4-6.7 2.6-3.4 1.1-6.8 2.1-3.5 0.9-7 1.6-3.5 0.8-7.1 1.3l2-0.3q-3.5 0.5-7.1 0.7-3.6 0.3-7.2 0.3-3.5 0-7.1-0.3-3.6-0.2-7.2-0.7l2 0.3q-3.2-0.4-6.4-1.1-3.2-0.6-6.3-1.5-3.2-0.8-6.3-1.9-3-1-6.1-2.3l1.8 0.8q-1.7-0.8-3.4-1.6-1.7-0.8-3.4-1.6-1.7-0.9-3.3-1.9-1.7-0.9-3.3-1.9-3.2-2-6.2-4.3-0.4-0.3-0.8-0.6c-0.9-0.7 0.6 0.5 0.6 0.5q-0.1-0.1-0.3-0.3-0.2-0.1-0.4-0.3-0.2-0.1-0.4-0.3-0.2-0.2-0.4-0.3-1.4-1.2-2.8-2.4-1.5-1.3-2.8-2.6-1.4-1.3-2.7-2.6-1.3-1.3-2.6-2.7-1.2-1.4-2.4-2.8-1.3-1.5-2.4-3c-0.3-0.4-1-1.2 0.4 0.6q-0.3-0.4-0.6-0.7-0.6-0.9-1.2-1.8-2.2-3-4.2-6.2-1.1-1.8-2.2-3.7-1-1.8-2-3.7-1-1.9-1.9-3.8-0.9-2-1.7-3.9l0.7 1.8q-1.3-3.2-2.5-6.5-1.1-3.3-2-6.7-0.9-3.4-1.6-6.8-0.7-3.4-1.2-6.9l0.3 2q-0.5-3.2-0.7-6.4-0.2-3.2-0.2-6.4 0-3.2 0.2-6.4 0.2-3.2 0.6-6.4l-0.3 2q0.5-3.1 1.1-6.2 0.6-3 1.5-6 0.8-3 1.8-6 1-2.9 2.2-5.8l-0.7 1.8q0.7-1.8 1.6-3.5 0.8-1.8 1.7-3.6 0.9-1.7 1.9-3.4 0.9-1.7 2-3.3 2-3.4 4.4-6.5 0.5-0.7 1-1.5c0.3-0.4 1.2-1.4-0.3 0.4q0.2-0.2 0.5-0.5 1.2-1.6 2.6-3.2 1.2-1.5 2.5-2.9 1.3-1.4 2.7-2.8 1.4-1.4 2.8-2.7 1.4-1.3 2.8-2.6 1.5-1.3 3-2.5 0.7-0.6 1.4-1.2 0.3-0.2 0.6-0.4c-2 1.6-0.6 0.4-0.1 0.1q3.1-2.3 6.4-4.5 1.9-1.1 3.7-2.2 1.9-1.1 3.8-2.1 2-1.1 3.9-2 2-0.9 4-1.8l-1.8 0.8c7.8-3.3 42.2-11 48.4-10.1l-2-0.3q3.5 0.5 6.9 1.2 3.4 0.7 6.7 1.6 3.4 1 6.6 2.1 3.3 1.1 6.5 2.5l-1.8-0.8q1.7 0.7 3.3 1.5 1.6 0.7 3.1 1.5 1.6 0.8 3.2 1.6 1.5 0.9 3 1.8 3.1 1.8 6 3.7 1.4 1 2.7 1.9 0.7 0.5 1.4 1 0.4 0.3 0.7 0.6c1.1 0.8-1.4-1.1-0.3-0.3q1.4 1.1 2.7 2.2 1.3 1.1 2.6 2.3 1.3 1.1 2.6 2.3 1.2 1.2 2.5 2.5 2.4 2.4 4.6 5 1.1 1.4 2.2 2.7c0.4 0.5 1.6 2.1 0.1 0.1q0.6 0.8 1.1 1.5 1.2 1.6 2.3 3.2 1.2 1.7 2.2 3.4 1.1 1.7 2 3.4 1 1.8 1.9 3.5c1.8 3.5 7 4.8 10.3 2.7q1.3-0.8 2.1-1.9 0.9-1.2 1.3-2.7 0.4-1.4 0.2-2.9-0.2-1.4-0.9-2.7z"/>
	<path id="Layer" fill-rule="evenodd" class="s7" d="m433.2 515.6q0.3 1.6 0.4 3.2 0.2 1.6 0.3 3.2 0.1 1.6 0.1 3.2-1.7 2.1-3.4 4.2-0.1 0-0.1 0 0 0 0 0.1 0 0 0 0-0.1 0-0.1 0-3.3 4.1-6.7 8.2 1.1 0.2 2.1 0.4 1 0.1 2.1 0.1 1 0.1 2.1 0.1 1 0 2-0.1-0.1 0.5-0.3 1.1h-30q-1.3-3-2.5-6-1.3-3-2.3-6.1-1.1-3.1-2-6.2-0.8-3.1-1.6-6.3c-19.6 7.7-51.9-16.4-47.5-31.4q0.1 0 0.2 0l0.1-0.1c1-0.1 2-0.6 2.7-1.3 0.8-0.7 1.3-1.6 1.5-2.6 0.3-1 0.2-2.1-0.2-3-0.4-1-1.1-1.8-1.9-2.4q-1-0.7-2.1-1.3-0.5-0.2-1-0.5-0.4-0.2-0.9-0.5-0.5-0.2-1-0.4-0.5-0.2-1-0.4 0-0.1 0-0.3c-0.8-4.9 4.1-4.7 9-5.7 8.5-1.7 37.8 18.9 39.5 32.8v0.2q-0.2-2.4-0.3-4.7-0.1-2.4-0.1-4.8 0-2.4 0-4.8 0.1-2.4 0.3-4.8 0.3-4.1 0.9-8.1 0.6-4 1.5-8 0.8-4 1.9-7.9 1.1-3.9 2.5-7.7c-7.7 8-38.3-27.6-28.8-41.2h0.1c1-0.2 2-0.6 2.7-1.3 0.8-0.7 1.3-1.7 1.5-2.7 0.3-1 0.2-2-0.2-3-0.4-1-1.1-1.8-1.9-2.3q-1-0.7-2.1-1.3 0-0.2 0-0.3c1-9.2 12.9-12.4 18.6-5.1 4.8 6 17.3 34.7 16.3 42.6q1.3-2.6 2.8-5.2 1.5-2.7 3.1-5.2 1.6-2.5 3.3-5 1.7-2.4 3.6-4.8 0.4-0.5 0.8-1-1.1-1.6-2-3.2-0.8-1.6-1.6-3.3-0.8-1.7-1.4-3.4-0.6-1.7-1-3.5c-1.3-5.6-0.6-11.9 3-16.4 3.6-4.5 10.4-6.5 15.4-3.6q0.5 0.3 1 0.7 0.5 0.4 0.9 0.8 0.5 0.4 0.9 0.9 0.4 0.5 0.7 1-0.7 0.9-1.5 1.9 0 0 0 0 0 0 0 0 0 0.1-0.1 0.1 0 0 0 0-0.7 0.8-1.3 1.6-0.4 0.5-0.9 1.1c-0.4 0.5-0.7 1.2-0.8 1.9 0 0.7 0.1 1.5 0.4 2.1 0.3 0.7 0.8 1.2 1.5 1.6 0.6 0.3 1.3 0.5 2 0.5h0.1q0.3 0 0.6-0.1 1 0 2-0.1c-0.4 2.3-2.1 4.3-2.2 6.7-0.6 13.3-6.7 14.4-13.5 14q-4.5 5.6-8.3 11.7-3.8 6.1-6.9 12.7-3 6.5-5.3 13.3-2.2 6.9-3.7 13.9-1 5.2-1.6 10.5-0.2 1.6-0.4 3.3-0.1 1.6-0.2 3.2-0.1 1.6-0.1 3.2-0.1 1.7-0.1 3.3 0.1 6.4 0.8 12.9 0.7 6.4 2 12.7 1.4 6.3 3.5 12.4 2 6.1 4.7 12-0.3-1.3-0.5-2.6-0.1-1.3-0.2-2.6-0.1-1.3 0-2.6 0-1.3 0.2-2.5c0.9-7.8 23.1-31 26.6-22.7q0.1 0.2 0.1 0.3c-0.1 0.4-0.1 0.6-0.2 1-0.6 0.5-1 1.2-1.2 2-0.1 0.7-0.1 1.5 0.2 2.2 0.3 0.8 0.8 1.4 1.5 1.8 0.7 0.4 1.4 0.6 2.2 0.6q0.4 1.5 0.7 3.1zm-35.1-70.7v-0.1zm-6.6 60q-0.2-1.1-0.3-2.3 0 0.2 0 0.4 0 0.6 0 1.3l0.3 0.6z"/>
	<path id="Layer" class="s5" d="m95.2 450c-6 0-11-4.9-11-11 0-6.1 5-11 11-11 6.1 0 11 4.9 11 11 0 6.1-4.9 11-11 11z"/>
	<path id="Layer" class="s5" d="m227.2 570c-6 0-11-4.9-11-11 0-6.1 5-11 11-11 6.1 0 11 4.9 11 11 0 6.1-4.9 11-11 11z"/>
	<path id="Layer" class="s5" d="m728.2 570c-6 0-11-4.9-11-11 0-6.1 5-11 11-11 6.1 0 11 4.9 11 11 0 6.1-4.9 11-11 11z"/>
	<path id="Layer copy" class="s5" d="m614.3 440.6c-5.1 0-9.3-4.2-9.3-9.3 0-5.1 4.2-9.3 9.3-9.3 5.1 0 9.3 4.2 9.3 9.3 0 5.1-4.2 9.3-9.3 9.3z"/>
	<path id="Layer copy 2" class="s5" d="m609.3 442.6c-5.1 0-9.3-4.2-9.3-9.3 0-5.1 4.2-9.3 9.3-9.3 5.1 0 9.3 4.2 9.3 9.3 0 5.1-4.2 9.3-9.3 9.3z"/>
	<path id="Layer copy 3" class="s5" d="m613.3 443.6c-5.1 0-9.3-4.2-9.3-9.3 0-5.1 4.2-9.3 9.3-9.3 5.1 0 9.3 4.2 9.3 9.3 0 5.1-4.2 9.3-9.3 9.3z"/>
	<path id="Layer" class="s5" d="m755.2 430c-6 0-11-4.9-11-11 0-6.1 5-11 11-11 6.1 0 11 4.9 11 11 0 6.1-4.9 11-11 11z"/>
	<path id="Layer" class="s5" d="m723.2 328c-6 0-11-4.9-11-11 0-6.1 5-11 11-11 6.1 0 11 4.9 11 11 0 6.1-4.9 11-11 11z"/>
	<path id="Layer" class="s5" d="m264.2 419c0 5.8-4.6 10.6-10.4 10.9-5.8 0.3-10.8-4.1-11.4-9.9-0.6-5.8 3.5-11 9.3-11.9 5.8-0.8 11.2 3 12.3 8.7q0.1 0.3 0.1 0.6 0.1 0.2 0.1 0.5 0 0.3 0 0.6 0 0.2 0 0.5z"/>
	<path id="Layer" class="s5" d="m484.2 360c-6 0-11-4.9-11-11 0-6.1 5-11 11-11 6.1 0 11 4.9 11 11 0 6.1-4.9 11-11 11z"/>
	<path id="Layer" class="s5" d="m375.2 349c0 5.8-4.6 10.6-10.4 10.9-5.8 0.3-10.8-4.1-11.4-9.9-0.6-5.8 3.5-11 9.3-11.9 5.8-0.8 11.2 3 12.3 8.7q0.1 0.3 0.1 0.6 0.1 0.2 0.1 0.5 0 0.3 0 0.6 0 0.2 0 0.5z"/>
	<path id="Layer" class="s5" d="m233.2 317c0 5.8-4.6 10.6-10.4 10.9-5.8 0.3-10.8-4.1-11.4-9.9-0.6-5.8 3.5-11 9.3-11.9 5.8-0.8 11.2 3 12.3 8.7q0.1 0.3 0.1 0.6 0.1 0.2 0.1 0.5 0 0.3 0 0.6 0 0.2 0 0.5z"/>
	<path id="Layer" class="s5" d="m593.2 450c-6 0-11-4.9-11-11 0-6.1 5-11 11-11 6.1 0 11 4.9 11 11 0 6.1-4.9 11-11 11z"/>
	<path id="Layer" class="s5" d="m426.2 354c-8.8 0-16-7.2-16-16 0-8.8 7.2-16 16-16 8.9 0 16 7.2 16 16 0 8.8-7.1 16-16 16z"/>
	<path id="Layer" class="s8" d="m858.9 570.8l-857.7 0.3c-0.3 0-0.6-0.1-0.9-0.3-0.2-0.2-0.3-0.5-0.3-0.8 0-0.4 0.1-0.7 0.3-0.9 0.3-0.2 0.6-0.3 0.9-0.3l857.7-0.3c0.4 0 0.7 0.1 0.9 0.3 0.2 0.2 0.3 0.5 0.3 0.8 0 0.4-0.1 0.7-0.3 0.9-0.2 0.2-0.5 0.3-0.9 0.3z"/>
</svg>